<svg xmlns="http://www.w3.org/2000/svg" viewBox="0 0 329 329"><path d="M194.64 164.77L322.75 36.66c8.34-8.33 8.34-21.81 0-30.14-8.33-8.33-21.81-8.33-30.14 0L164.5 134.63 36.39 6.52c-8.34-8.33-21.81-8.33-30.14 0-8.34 8.33-8.34 21.81 0 30.14l128.11 128.11L6.25 292.88c-8.34 8.33-8.34 21.81 0 30.14 4.15 4.16 9.61 6.24 15.07 6.24s10.91-2.09 15.07-6.24L164.5 194.91l128.11 128.11c4.16 4.16 9.61 6.24 15.07 6.24 5.46 0 10.91-2.09 15.07-6.24 8.34-8.33 8.34-21.81 0-30.14L194.64 164.77z" fill="#a19c9f"/></svg>