<svg xmlns="http://www.w3.org/2000/svg" viewBox="0 0 167.7 167.7"><path d="M167.1 42.5c-.5-9.9-2.2-15.4-3.5-19-1.7-4.5-4.2-8.5-7.7-11.8-3.3-3.4-7.3-6-11.8-7.6-3.6-1.4-9-3.1-19-3.5-10.7-.5-14-.6-41.3-.6S53.3.1 42.5.6c-9.9.5-15.4 2.2-19 3.5C19 5.8 15 8.3 11.7 11.7 8.3 15 5.7 19 4 23.5c-1.4 3.6-3.1 9-3.5 19-.4 10.8-.5 14-.5 41.4v.3c0 26.9.1 30.2.6 40.9.5 9.9 2.1 15.4 3.5 19 1.7 4.5 4.2 8.5 7.7 11.8 3.3 3.4 7.3 6 11.8 7.7 3.6 1.4 9 3.1 19 3.5 8.6.4 12.4.6 27.2.6v-66H49.6V78.2h20.2V61c0-20 12.2-31 30.1-31 8.6 0 15.9.6 18.1.9v20.9h-12.4c-9.7 0-11.6 4.6-11.6 11.4v14.9h23.2l-3 23.4H94V166h-.1v1.6c18.3 0 21.9-.1 31.2-.6 9.9-.5 15.4-2.1 19-3.5 8.9-3.4 16-10.5 19.4-19.4 1.4-3.6 3.1-9 3.5-19 .5-10.8.6-14 .6-41.3.1-27.3 0-30.5-.5-41.3z" fill="#f5ede6"/></svg>