<svg version="1.1" id="Слой_1" xmlns="http://www.w3.org/2000/svg" x="0" y="0" viewBox="0 0 241.2 241.2" xml:space="preserve"><style>.st0{fill:#f5ede6}</style><path class="st0" d="M169.6 120.6c0 27.1-21.9 49-49 49s-49-21.9-49-49 21.9-49 49-49 49 21.9 49 49z"/><path class="st0" d="M235.2 33.9c-2.4-6.4-6.1-12.2-11-16.9-4.7-4.9-10.5-8.6-16.9-11-5.2-2-13-4.4-27.3-5.1-15.5-.7-20.2-.9-59.4-.9-39.3 0-43.9.1-59.4.9C46.9 1.6 39.1 4 33.9 6 27.5 8.4 21.7 12.1 17 17c-4.9 4.7-8.6 10.5-11 16.9-2 5.2-4.4 13-5.1 27.3C.2 76.7 0 81.3 0 120.6c0 39.2.2 43.9.9 59.4.7 14.3 3 22.1 5.1 27.3 2.4 6.4 6.1 12.2 11 16.9 4.7 4.9 10.5 8.6 16.9 11 5.2 2 13 4.4 27.3 5.1 15.5.7 20.1.9 59.4.9s43.9-.1 59.4-.9c14.3-.7 22.1-3 27.3-5.1 12.8-4.9 23-15.1 27.9-27.9 2-5.2 4.4-13 5.1-27.3.7-15.5.9-20.2.9-59.4 0-39.3-.1-43.9-.9-59.4-.7-14.3-3.1-22.1-5.1-27.3zM120.6 196.1c-41.7 0-75.5-33.8-75.5-75.5s33.8-75.5 75.5-75.5 75.5 33.8 75.5 75.5-33.8 75.5-75.5 75.5zm78.5-136.3c-9.7 0-17.6-7.9-17.6-17.6s7.9-17.6 17.6-17.6 17.6 7.9 17.6 17.6-7.9 17.6-17.6 17.6z"/></svg>