<svg version="1.1" id="Capa_1" xmlns="http://www.w3.org/2000/svg" x="0" y="0" viewBox="0 0 463.4 457.1" xml:space="preserve"><style>.st0{fill:#fff}</style><path class="st0" d="M450 0H335.6c-7.4 0-13.4 6.1-13.4 13.5s6 13.4 13.4 13.4h81.75L228.8 213.7c-5.3 5.2-5.3 13.7-.1 19 2.6 2.7 6 4 9.5 4 3.4 0 6.8-1.3 9.4-3.8l189-187.24v82.14c0 7.4 6 13.4 13.4 13.4s13.4-6 13.4-13.5V13.4C463.4 6 457.4 0 450 0z"/><path class="st0" d="M418.3 192.6c-1-3.7-2.1-7.4-3.3-11l-2.8-9.4c-2.4-8-10.9-12.5-18.9-10.1s-12.6 10.8-10.2 18.7l7.7 25.5c3.1 13.1 4.7 26.6 4.7 40.6 0 99.5-81.9 180.4-182.6 180.4s-182.7-81-182.7-180.4S112.1 66.5 212.7 66.5c21.2 0 41.6 3.6 60.5 10.2l14.7 6.1c7.8 3.2 16.7-.4 19.9-8.1 1.6-3.9 1.5-8 0-11.6-1.2-2.9-3.4-5.5-6.3-7.1-.2-.1-.4-.2-.5-.2-.4-.2-.9-.5-1.4-.7l-1.6-.6c-2.5-1.1-4.9-2.1-7.4-3.1-24.2-9.4-50.5-14.6-78-14.6-10.5 0-20.9.8-31 2.2C79.1 53.8 0 141.4 0 246.9c0 115.9 95.4 210.2 212.7 210.2 99 0 182.3-67.1 206-157.6 4.4-16.8 6.7-34.4 6.7-52.5.1-18.9-2.4-37-7.1-54.4z"/></svg>