<svg xmlns="http://www.w3.org/2000/svg" viewBox="0 0 512 512"><path d="M204.5 459.61v51.86l-12.54-10.13c-1.94-1.57-48.04-38.99-94.78-92.66C32.7 334.64 0 268.18 0 211.15v-5.65C0 92.74 91.74 1 204.5 1S409 92.74 409 205.5v5.65c0 4.79-.25 9.65-.71 14.57l-39.99-36.48C360.1 106.09 289.77 40.9 204.5 40.9c-90.76 0-164.6 73.84-164.6 164.6v5.65c0 96.37 124.17 213.03 164.6 248.46zm122.7-28.66h59.85V371.1H327.2v59.85zM204.5 120.71c46.75 0 84.79 38.04 84.79 84.79s-38.04 84.79-84.79 84.79-84.79-38.04-84.79-84.79 38.04-84.79 84.79-84.79zm0 39.9c-24.75 0-44.89 20.14-44.89 44.89s20.14 44.89 44.89 44.89 44.89-20.14 44.89-44.89-20.14-44.89-44.89-44.89zm280.61 243.22l-11.22-10.23v64.06c0 29.83-24.27 54.09-54.1 54.09H293.46c-29.83 0-54.1-24.27-54.1-54.09V393.6l-11.22 10.23-26.89-29.48L356.62 232.6 512 374.36l-26.89 29.47zm-51.12-46.63l-77.36-70.57-77.36 70.57v100.46c0 7.83 6.37 14.2 14.2 14.2H419.8c7.83 0 14.2-6.37 14.2-14.2V357.2z" fill="#ffa800"/></svg>