<svg version="1.1" id="Capa_1" xmlns="http://www.w3.org/2000/svg" x="0" y="0" viewBox="0 0 391 519" xml:space="preserve"><style>.st0{fill:#a19c9f}</style><path class="st0" d="M195.5 0C87.7 0 0 87.7 0 195.5c0 134.53 174.31 310.36 181.73 317.77 3.69 3.69 8.58 5.73 13.77 5.73 5.19 0 10.08-2.03 13.77-5.73C216.69 505.86 391 330.03 391 195.5 391 87.7 303.3 0 195.5 0zm0 39C281.79 39 352 109.21 352 195.5c0 98.22-116.5 232.56-156.5 275.76C155.5 428.06 39 293.72 39 195.5 39 109.21 109.21 39 195.5 39z"/><path class="st0" d="M195.5 295c54.86 0 99.5-44.64 99.5-99.5S250.36 96 195.5 96 96 140.64 96 195.5s44.64 99.5 99.5 99.5zm0-160c33.36 0 60.5 27.14 60.5 60.5S228.86 256 195.5 256 135 228.86 135 195.5s27.14-60.5 60.5-60.5z"/></svg>