<svg version="1.1" id="Слой_1" xmlns="http://www.w3.org/2000/svg" x="0" y="0" width="210.51" height="209.91" xml:space="preserve"><style>.st0{fill:#7f003e}</style><circle class="st0" cx="165" cy="164.4" r="45.51"/><path class="st0" d="M68.25 209.91H22.78C10.2 209.91 0 199.71 0 187.13v-45.47c0-12.58 10.2-22.78 22.78-22.78h45.47c12.58 0 22.78 10.2 22.78 22.78v45.47c0 12.58-10.2 22.78-22.78 22.78zm0-118.88H22.78C10.2 91.03 0 80.83 0 68.25V22.78C0 10.2 10.2 0 22.78 0h45.47c12.58 0 22.78 10.2 22.78 22.78v45.47c0 12.58-10.2 22.78-22.78 22.78zm119.49 0h-45.47c-12.58 0-22.78-10.2-22.78-22.78V22.78C119.49 10.2 129.68 0 142.26 0h45.47c12.58 0 22.78 10.2 22.78 22.78v45.47c0 12.58-10.19 22.78-22.77 22.78z"/></svg>