<svg version="1.1" id="Layer_1" xmlns="http://www.w3.org/2000/svg" x="0" y="0" viewBox="0 0 512 512" xml:space="preserve"><style>.st0{fill:#fff}</style><path class="st0" d="M367.97 512c-16.53 0-32.91-2.92-48.94-8.74-70.6-25.64-136.12-67.41-189.5-120.79S34.39 263.56 8.74 192.97C.5 170.28-1.93 146.86 1.51 123.36c3.23-22.02 11.76-43.39 24.66-61.81 12.96-18.5 30.24-33.89 49.97-44.5C97.2 5.74 120.16 0 144.42 0c7.54 0 14.06 5.27 15.64 12.65l25.11 117.19c1.14 5.31-.49 10.83-4.33 14.67l-42.91 42.91c40.48 80.48 106.17 146.17 186.65 186.65l42.91-42.91c3.84-3.84 9.36-5.47 14.67-4.33l117.19 25.11c7.38 1.58 12.65 8.1 12.65 15.64 0 24.26-5.74 47.22-17.05 68.26-10.61 19.73-26 37.01-44.5 49.97-18.42 12.91-39.79 21.43-61.81 24.66-6.9 1.02-13.8 1.53-20.67 1.53zM131.63 32.7C99.64 36.23 71.24 53 52.39 79.91c-21.21 30.26-26.15 67.49-13.57 102.13 49.3 135.72 155.42 241.84 291.14 291.14 34.64 12.58 71.86 7.64 102.13-13.57 26.91-18.86 43.68-47.25 47.22-79.25l-95.34-20.43-44.81 44.81a15.996 15.996 0 01-18.12 3.17C225.85 363.2 148.8 286.15 104.08 190.97c-2.87-6.1-1.6-13.35 3.17-18.12l44.81-44.81-20.43-95.34zM496 271.99c-8.84 0-16-7.16-16-16C480 132.48 379.52 32 256.01 32c-8.84 0-16-7.16-16-16s7.16-16 16-16c68.38 0 132.66 26.63 181.01 74.98S512 187.61 512 255.99c0 8.84-7.16 16-16 16z"/><path class="st0" d="M432 271.99c-8.84 0-16-7.16-16-16C416 167.77 344.23 96 256.01 96c-8.84 0-16-7.16-16-16s7.16-16 16-16C361.87 64 448 150.12 448 255.99c0 8.84-7.16 16-16 16z"/><path class="st0" d="M368 271.99c-8.84 0-16-7.16-16-16 0-52.93-43.06-96-96-96-8.84 0-16-7.16-16-16s7.16-16 16-16c70.58 0 127.99 57.42 127.99 127.99.01 8.85-7.15 16.01-15.99 16.01z"/></svg>