<svg xmlns="http://www.w3.org/2000/svg" viewBox="0 0 512 512"><path d="M512 60v210c0 33.09-26.91 60-60 60h-34v-40h34c11.03 0 20-8.97 20-20V163h-53v20h-40v-80h40v20h53V60c0-11.03-8.97-20-20-20H290v83h20v40h-80v-40h20V40h-55V0h257c33.09 0 60 26.91 60 60zM290 232h-40v220c0 11.03-8.97 20-20 20h-33v40h33c33.09 0 60-26.91 60-60V330h57v-40h-57v-58zm-149 21H40V60c0-11.03 8.97-20 20-20h35V0H60C26.91 0 0 26.91 0 60v392c0 33.09 26.91 60 60 60h36v-40H60c-11.03 0-20-8.97-20-20V293h101v19h40v-80h-40v21z" fill="#ffa800"/></svg>