<svg xmlns="http://www.w3.org/2000/svg" viewBox="0 0 241.2 241.2"><path d="M240.3 61.2c-.7-14.3-3.1-22.1-5.1-27.3-2.4-6.4-6.1-12.2-11-16.9-4.7-4.9-10.5-8.6-16.9-11-5.2-2-13-4.4-27.3-5.1-15.5-.7-20.2-.9-59.4-.9-39.3 0-43.9.1-59.4.9C46.9 1.6 39.1 4 33.9 6 27.5 8.4 21.7 12.1 17 17c-4.9 4.7-8.6 10.5-11 16.9-2 5.2-4.4 13-5.1 27.3C.2 76.7 0 81.3 0 120.6c0 39.2.2 43.9.9 59.4.7 14.3 3 22.1 5.1 27.3 2.4 6.4 6.1 12.2 11 16.9 4.7 4.9 10.5 8.6 16.9 11 5.2 2 13 4.4 27.3 5.1 15.5.7 20.1.9 59.4.9s43.9-.1 59.4-.9c14.3-.7 22.1-3 27.3-5.1 12.8-4.9 23-15.1 27.9-27.9 2-5.2 4.4-13 5.1-27.3.7-15.5.9-20.2.9-59.4 0-39.3-.1-43.9-.9-59.4zm-42.4 1.3l-25.6 120.6c-1.9 8.5-7 10.7-14.1 6.6l-39-28.8-18.8 18.1c-2.1 2.1-3.8 3.8-7.9 3.8l2.7-39.7 72.3-65.3c3.2-2.7-.7-4.3-4.9-1.6l-89.3 56.2-38.5-12c-8.3-2.7-8.5-8.3 1.8-12.4L187 50c7.1-2.3 13.2 1.9 10.9 12.5z" fill="#f5ede6"/></svg>