<svg version="1.1" id="regular" xmlns="http://www.w3.org/2000/svg" x="0" y="0" viewBox="0 0 512 512" xml:space="preserve"><style>.st0{fill:#4f0328}</style><path class="st0" d="M256 512c141.16 0 256-114.84 256-256S397.16 0 256 0 0 114.84 0 256s114.84 256 256 256zm0-480c123.52 0 224 100.48 224 224S379.52 480 256 480 32 379.52 32 256 132.48 32 256 32z"/><path class="st0" d="M168.45 301.97l33.45-14.53-9.39 9.41a15.995 15.995 0 00-4.69 11.31v62.61c0 14.34 17.32 21.29 27.31 11.31l33.58-33.58 73.17 36.59c9.47 4.74 20.93-.87 22.89-11.46l41.75-229.57c2.2-12.35-9.96-22.34-21.59-17.77L93.65 232.47c-12.16 4.74-13.78 21.38-2.77 28.39l62.59 39.94c4.48 2.86 10.14 3.31 14.98 1.17zm181.46-135.4l-32.79 180.37-64.43-32.19a15.969 15.969 0 00-18.45 3.01l-14.42 14.42v-17.34l64.15-64.15c12.44-12.44-1.56-32.96-17.69-25.98L163.52 269.3l-28.89-18.43 215.28-84.3z"/></svg>