<svg xmlns="http://www.w3.org/2000/svg" viewBox="0 0 512 512"><path d="M307.2 0H204.8C106 0 25.6 80.4 25.6 179.2V256c0 69.4 40 132.3 102.4 162v85.5c0 7.4 9.3 11.3 14.6 6l74.3-74.3h90.3c98.8 0 179.2-80.4 179.2-179.2v-76.8C486.4 80.4 406 0 307.2 0zm-34.1 128c-2.5 0-5.1.1-7.6.4-4.7.5-8.9-2.9-9.4-7.5-.5-4.7 2.9-8.9 7.5-9.4 3.1-.3 6.3-.5 9.5-.5 47.1 0 85.3 38.3 85.3 85.3 0 3.2-.2 6.3-.5 9.5-.5 4.6-4.8 8.1-9.4 7.5-4.6-.5-8.1-4.8-7.5-9.4.3-2.5.4-5.1.4-7.6-.1-37.7-30.7-68.3-68.3-68.3zm51.2 68.3c0 4.6-3.9 8.5-8.5 8.5-4.7 0-8.5-3.9-8.5-8.5 0-18.8-15.3-34.1-34.1-34.1-4.7 0-8.5-3.8-8.5-8.5s3.8-8.5 8.5-8.5c28.1-.1 51.1 22.9 51.1 51.1zm60.5 125.2c-2.5 11-8 21-16 29-10.9 10.9-25.7 16.5-43.4 16.5-4.7 0-9.7-.4-14.8-1.2-40.8-6.4-97.6-26.4-134.6-63.3l-.5-.5c-36.9-37-56.9-93.8-63.3-134.6-3.8-24.3 1.5-44.4 15.3-58.2 8-8 18-13.5 29-16 1.1-.3 2.3-.3 3.4-.1l41.6 7.7c3.4.6 6.1 3.3 6.8 6.7l12.1 60.3c.6 2.8-.3 5.7-2.3 7.7l-24.4 24.4c20.2 43.1 43.1 66.1 84.4 84.6l24.5-24.5c2-2 4.9-2.9 7.7-2.3l60.3 12.1c3.4.7 6.1 3.4 6.7 6.8l7.7 41.6c.1 1 0 2.2-.2 3.3zm4.6-97.6c-1.1 4.6-6 7.5-10.6 6.3-4.4-1.2-7.1-5.8-6-10.2 1.8-7.7 2.7-15.7 2.7-23.6 0-56.5-45.9-102.4-102.4-102.4-2.6 0-5.3.1-7.9.3-4.7.4-8.8-3.2-9.2-7.9-.4-4.7 3.2-8.8 7.9-9.2 3-.2 6.1-.3 9.2-.3 65.9 0 119.5 53.6 119.5 119.5 0 9.2-1.1 18.5-3.2 27.5z" fill="#735f69"/></svg>