<svg version="1.1" id="Layer_1" xmlns="http://www.w3.org/2000/svg" x="0" y="0" viewBox="0 0 512 512" xml:space="preserve"><style>.st0{fill:#4f0328}</style><path class="st0" d="M439.28 72.72C392.38 25.82 330.04 0 263.71 0h-.02c-32.8 0-64.77 6.36-95.01 18.88-30.24 12.53-57.34 30.64-80.54 53.84-46.89 46.89-72.72 109.25-72.72 175.57 0 39.55 9.54 78.86 27.62 113.88L1.31 481.39c-2.94 8.41-.86 17.55 5.45 23.85 4.41 4.41 10.21 6.76 16.18 6.76 2.56 0 5.14-.43 7.67-1.31l119.23-41.73c35.02 18.08 74.32 27.62 113.88 27.62 66.32 0 128.67-25.83 175.57-72.72C486.17 376.96 512 314.61 512 248.29s-25.82-128.67-72.72-175.57zm-21.24 329.9c-41.22 41.23-96.04 63.93-154.33 63.93-35.66 0-71.09-8.82-102.46-25.52-5.69-3.02-12.41-3.54-18.45-1.43L34.48 477.52 72.4 369.2c2.11-6.04 1.59-12.77-1.43-18.45-16.69-31.36-25.52-66.79-25.52-102.46 0-58.3 22.7-113.11 63.93-154.33C150.6 52.74 205.4 30.04 263.7 30.03h.02c58.3 0 113.11 22.7 154.33 63.93 41.23 41.22 63.93 96.03 63.93 154.33s-22.71 113.11-63.94 154.33z"/><path class="st0" d="M355.98 270.47c-11.42-11.42-30.01-11.42-41.43 0l-12.49 12.49c-31.02-16.9-56.12-42-73.03-73.02l12.49-12.49c11.43-11.42 11.43-30.01 0-41.43l-33.66-33.66c-11.42-11.42-30.01-11.42-41.43 0l-26.93 26.93c-15.43 15.43-16.2 41.95-2.17 74.68 12.18 28.42 34.47 59.65 62.76 87.95s59.53 50.58 87.95 62.76c15.55 6.66 29.7 9.99 41.92 9.99 13.5 0 24.66-4.06 32.76-12.16l26.93-26.93c5.54-5.54 8.58-12.89 8.58-20.71 0-7.83-3.05-15.18-8.58-20.71l-33.67-33.69zm-14.5 80.79c-4.4 4.4-17.94 5.95-41.61-4.2-24.99-10.71-52.89-30.74-78.54-56.4s-45.68-53.55-56.39-78.54c-10.14-23.67-8.6-37.21-4.2-41.61l26.41-26.41 32.62 32.63-15.64 15.64c-7.07 7.07-8.78 17.79-4.24 26.68 20.56 40.31 52.73 72.49 93.05 93.05 8.89 4.54 19.62 2.83 26.69-4.24l15.64-15.64 32.63 32.63-26.42 26.41z"/></svg>