<svg xmlns="http://www.w3.org/2000/svg" viewBox="0 0 512.3 512.3"><path d="M391.6 38.8C350.9 13.5 303.9.1 256 .1 114.6.2 0 114.8.1 256.2c0 49 14.1 96.9 40.5 138.1L.7 497.6c-2.1 5.5.6 11.7 6.1 13.8 1.2.5 2.5.7 3.9.7 1.2 0 2.4-.2 3.6-.6L121 473.4c120 74.7 277.9 38 352.6-82s38-277.8-82-352.6zm-7.6 292c-5.4 31.1-32.5 53.7-64 53.3-33.5 0-97.9-40.1-124.9-67.1S128 225.6 128 192.1c-.3-31.5 22.3-58.6 53.3-64h21.3c4 0 7.7 2.3 9.5 5.9 0 0 12.9 26.1 21.3 42.5 9.5 18.5-8.3 40.3-18.5 50.5 6.1 15.9 15.4 30.5 27.2 42.8 12.3 11.8 26.9 21.1 42.8 27.2 10.2-10.2 32-28 50.5-18.5 16.4 8.5 42.5 21.3 42.5 21.3 3.6 1.8 6 5.5 6 9.6v21.4h.1z" fill="#735f69"/></svg>