<svg version="1.1" id="Capa_1" xmlns="http://www.w3.org/2000/svg" x="0" y="0" viewBox="0 0 447.98 352.02" xml:space="preserve"><style>.st0{fill:#ffa800}</style><path class="st0" d="M433.94 142.06l-128-128c-18.75-18.75-49.12-18.75-67.87 0-18.75 18.72-18.75 49.15 0 67.87l94.05 94.08-94.05 94.05c-18.75 18.75-18.75 49.12 0 67.87 9.34 9.41 21.63 14.08 33.92 14.08s24.58-4.67 33.95-14.05l128-128c18.72-18.74 18.72-49.14 0-67.9z"/><path class="st0" d="M209.94 142.06l-128-128c-18.75-18.75-49.12-18.75-67.87 0-18.75 18.72-18.75 49.15 0 67.87l94.05 94.08-94.05 94.05c-18.75 18.75-18.75 49.12 0 67.87 9.34 9.41 21.63 14.08 33.92 14.08s24.58-4.67 33.95-14.05l128-128c18.72-18.74 18.72-49.14 0-67.9z"/></svg>