<svg xmlns="http://www.w3.org/2000/svg" viewBox="0 0 512 335.45"><path d="M473.65 0H38.35C17.17 0 0 17.17 0 38.35v258.76c0 21.18 17.17 38.35 38.35 38.35h435.31c21.18 0 38.35-17.17 38.35-38.35V38.35C512 17.17 494.83 0 473.65 0z" fill="#ff4b55"/><path d="M253.47 137.48l13.84 18.1 21.61-7.23c1.21-.4 2.24.96 1.51 2.01l-12.94 18.75 13.55 18.31c.76 1.02-.22 2.42-1.44 2.06l-21.83-6.51-13.23 18.55c-.74 1.04-2.38.54-2.41-.74l-.55-22.78-21.73-6.85c-1.21-.38-1.24-2.09-.04-2.52l21.49-7.57-.2-22.78c-.02-1.26 1.6-1.82 2.37-.8zm-76.51 100.91c-38.99 0-70.63-31.63-70.63-70.66 0-38.96 31.63-70.66 70.63-70.66 14.51 0 27.89 4.46 39.04 12.01 1.71 1.16 3.66-1.09 2.23-2.57-16.66-17.32-40.25-27.89-66.4-27-44.93 1.53-82.12 37.55-84.99 82.41C63.55 213.3 104.23 256 154.89 256c24.95 0 47.38-10.43 63.39-27.11 1.41-1.47-.54-3.68-2.23-2.54-11.16 7.57-24.56 12.04-39.09 12.04z" fill="#f5f5f5"/></svg>