<svg version="1.1" id="Capa_1" xmlns="http://www.w3.org/2000/svg" x="0" y="0" viewBox="0 0 512 512" xml:space="preserve"><style>.st0{fill:#735f69}</style><path class="st0" d="M507.5 101.7L352.2 256l155.3 154.3c2.8-5.9 4.5-12.4 4.5-19.3V121c0-6.9-1.7-13.4-4.5-19.3zM467 76H45c-6.9 0-13.4 1.7-19.3 4.5L224.2 278c17.5 17.5 46.1 17.5 63.6 0L486.3 80.5c-5.9-2.8-12.4-4.5-19.3-4.5zM4.5 101.7C1.7 107.6 0 114.1 0 121v270c0 6.9 1.7 13.4 4.5 19.3L159.8 256 4.5 101.7z"/><path class="st0" d="M331 277.2l-22 22c-29.2 29.2-76.8 29.2-106.1 0l-22-22L25.7 431.5c5.9 2.8 12.4 4.5 19.3 4.5h422c6.9 0 13.4-1.7 19.3-4.5L331 277.2z"/></svg>