<svg xmlns="http://www.w3.org/2000/svg" width="200.09" height="154.92" fill="#efe0d4"><path d="M20.04 153.72c-1.75 1.18-6.13 2.22-8.69-.63l-4.73-5.95c-2.29-3.87.48-7.46 2.28-8.94 8.53-7.07 14.73-12.55 18.6-16.42 7.59-7.98 13.2-15.97 16.9-23.93.85-1.82-1.32-2.98-2.44-3.35C13.99 85.34 0 69.18 0 46.03c0-13.64 4.53-24.72 13.58-33.24C22.64 4.26 33.99 0 47.63 0c12.15 0 22.91 5.54 32.28 16.62 9.16 10.44 13.74 21.74 13.74 33.88 0 35.6-24.53 70-73.61 103.22zm106.44 0c-1.75 1.18-6.13 2.22-8.69-.63l-4.73-5.95c-2.29-3.87.48-7.46 2.28-8.94 8.53-7.07 14.73-12.55 18.6-16.42 7.59-7.98 13.2-15.97 16.9-23.93.85-1.82-1.32-2.98-2.44-3.35-27.97-9.17-41.95-25.32-41.95-48.47 0-13.64 4.53-24.72 13.59-33.24C129.08 4.26 140.43 0 154.07 0c12.15 0 22.91 5.54 32.28 16.62 9.16 10.44 13.74 21.74 13.74 33.88 0 35.6-24.53 70-73.61 103.22z"/></svg>