<svg version="1.1" id="Слой_1" xmlns="http://www.w3.org/2000/svg" x="0" y="0" viewBox="0 0 767.5 547.4" xml:space="preserve"><style>.st0{fill:#fff}</style><path class="st0" d="M425.2 142.2c-11.6-18.3-26.9-33.4-45.4-44.9-32.4-19.9-70.6-26.1-107.6-17.3s-68.4 31.4-88.3 63.8c-17 27.5-24 59-20.2 91 3.6 31.1 17.5 60.5 39.1 82.8.3.3.5.6.8.9l.5.5c9.9 10.1 21.2 18.6 33.6 25.4 2.2 1.2 4.7 1.8 7.2 1.8 1.4 0 2.9-.2 4.3-.6 3.9-1.1 7.1-3.7 9-7.3 3.3-6.1 2.1-13.6-3-18.3l-.6-.6-.8-.4c-9.4-4.9-18-11.2-25.8-18.7v-.2l-.5-.4c-2.4-2.3-4.8-4.8-7.1-7.4-10-11.8-17.3-25.1-21.8-39.6-.3-1-.6-2.1-.9-3.1-.3-1.1-.6-2.1-.8-3.1l-.5-2c-.2-.7-.3-1.4-.5-2.2-.2-.7-.3-1.5-.4-2.2-.1-.8-.3-1.5-.4-2.3-1.6-9.9-1.9-20-.9-30.1.2-2.1.5-4.3.9-6.4l.1-.6c0-.3.1-.6.2-.9.1-.5.2-.9.3-1.5.2-1 .4-2.1.6-3.1l.3-1.5.3-1.2.1-.6c3.2-12.8 8.5-24.8 15.8-35.6l2-2.7c3.6-5 7.6-9.7 11.9-14l1.8-1.8c2.8-2.6 5.7-5.1 8.7-7.4l1.5-1.2.1-.1c.4-.3.8-.6 1.3-1l1.2-.9 1.1-.8c24.2-16.5 53.5-22.7 82.5-17.6 17.4 3.1 34 10.2 47.9 20.7l.5.3h.6c10.1 7.9 18.8 17.4 25.6 28.3.9 1.4 2 2.7 3.3 3.7 5 4 12.1 4.4 17.5 1 3.4-2.2 5.8-5.5 6.7-9.5 1-3.7.3-7.7-1.8-11.1zm95.3 219.1v64.2h64.2v-64.2h-64.2zm0 0v64.2h64.2v-64.2h-64.2zm0 0v64.2h64.2v-64.2h-64.2zm31.4-203.9L336.2 354.1l23 25.2 7.3-6.6 21.8-19.8v126c0 37.8 30.7 68.5 68.5 68.5H647c37.8 0 68.5-30.7 68.5-68.5v-126l21.8 19.8 7.3 6.6 23-25.2-215.7-196.7zm129.4 170l-.2 151.4c0 19-15.4 34.4-34.4 34.4H456.6c-19 0-34.4-15.4-34.4-34.4V321.6l4.2-3.9L543 211.4l8.8-8 8.8 8 116.6 106.3 4.2 3.9-.1 5.8zm-160.8 98.1h64.2v-64.2h-64.2v64.2zm0-64.2v64.2h64.2v-64.2h-64.2zm0 0v64.2h64.2v-64.2h-64.2zm0 0v64.2h64.2v-64.2h-64.2z"/><path class="st0" d="M482.3 96.1c-.7-1.1-1.3-2.2-2-3.2-2.9-4.4-6-8.5-9.3-12.5C431.7 31.4 371.4 0 303.9 0 185.9 0 90 96 90 214c0 44.1 13.3 86.4 38.6 122.5l-15.3 15.3-2.7-2.7c-2.5-2.5-5.7-3.8-9.2-3.8-3.5 0-6.7 1.4-9.2 3.8l-76.4 76.5c-21.1 21.1-21.1 55.5 0 76.6C26.1 512.4 39.7 518 54.1 518s28.1-5.6 38.3-15.9l76.4-76.5c2.5-2.5 3.8-5.7 3.8-9.2 0-3.5-1.3-6.7-3.8-9.2l-2.6-2.6 15.3-15.3c23.2 16.3 49 27.6 76.2 33.6 3.5.8 7 1.5 10.6 2.1h.3c3.3.4 6.6-.4 9.3-2.4 2.8-2 4.6-5.1 5.2-8.5.9-5.9-2.3-11.7-7.8-14l-.6-.2-.7-.1c-5.3-.8-10.6-1.9-15.7-3.4-38-9.5-71.4-30.5-96.3-59.2-28.7-33-46.1-76.1-46.1-123.2 0-103.6 84.3-188 188-188 17.4 0 34.3 2.4 50.3 6.8 37.7 10.5 70.6 32.4 94.8 61.8 4.6 5.1 8.7 10.7 12.3 16.6l.3.6.5.5c4.3 4.1 10.8 4.8 15.9 1.7 3-1.8 5-4.7 5.8-8.1.9-3.3.3-6.8-1.5-9.8zM74 483.8c-5.3 5.3-12.4 8.2-19.9 8.2s-14.6-2.9-19.9-8.2c-11-11-11-28.9 0-39.8l38.2-38.2 39.8 39.8L74 483.8zm56.6-56.6l-39.8-39.8 10.7-10.7 39.8 39.8-10.7 10.7zm14.3-70.2c5.1 5.7 10.5 11.1 16.1 16.1l-13.2 13.2-16.1-16.1 13.2-13.2z"/></svg>