<svg version="1.1" id="Слой_1" xmlns="http://www.w3.org/2000/svg" x="0" y="0" viewBox="0 0 512 511" xml:space="preserve"><style>.st0{fill:#ffa800}</style><path class="st0" d="M512 441.9L442.9 511l-28.3-28.3 19.8-19.8H104c-30.8 0-55.9-25.1-55.9-55.9V77.5L28.3 97.3 0 69.1 69.1 0l69.1 69.1L110 97.4 88.2 75.6v206.3l.2-.2v56.5l-.2.2v56.3l.5-.5c2 14.6 13.6 26.2 28.1 28.4l-.4.4h320.2l-21.8-21.8 28.3-28.3 68.9 69z"/><path class="st0" d="M273.1 181.2h67v67h-67z"/><path class="st0" d="M306 26.1L132 184.8l30.1 33 12.6-11.5V278c0 33.4 27.2 60.6 60.6 60.6h141.5c33.4 0 60.6-27.2 60.6-60.6v-71.7l12.6 11.5 30.1-33L306 26.1zm86.7 252c0 8.8-7.1 15.9-15.9 15.9H235.3c-8.8 0-15.9-7.1-15.9-15.9V165.6l86.6-79 86.6 79v112.5h.1z"/></svg>