<?xml version="1.0" standalone="no"?>
<!DOCTYPE svg PUBLIC "-//W3C//DTD SVG 20010904//EN"
 "http://www.w3.org/TR/2001/REC-SVG-20010904/DTD/svg10.dtd">
<svg version="1.0" xmlns="http://www.w3.org/2000/svg"
 width="600.000000pt" height="600.000000pt" viewBox="0 0 600.000000 600.000000"
 preserveAspectRatio="xMidYMid meet">
<metadata>
Created by potrace 1.11, written by Peter Selinger 2001-2013
</metadata>
<g transform="translate(0.000000,600.000000) scale(0.100000,-0.100000)"
fill="#000000" stroke="none">
<path d="M2755 5796 c-44 -30 -85 -59 -91 -64 -10 -9 -80 -57 -113 -77 -14 -8
-178 -122 -190 -132 -6 -4 -7 -3883 -1 -3915 4 -22 65 -78 85 -78 3 0 49 -29
102 -64 204 -132 275 -177 286 -179 8 -1 11 583 12 2280 0 1256 -2 2283 -5
2283 -3 0 -41 -24 -85 -54z"/>
<path d="M3159 5093 c-3 -18 -4 -3793 -1 -3793 2 0 28 16 58 35 30 19 58 35
63 35 5 0 11 3 13 8 2 4 46 34 98 66 52 32 97 63 98 67 2 5 10 9 17 9 8 0 20
6 27 14 8 7 36 26 63 42 l50 29 -2 1560 c0 858 -2 1570 -2 1582 -1 12 -14 29
-33 41 -18 11 -98 65 -178 121 -80 56 -152 104 -160 108 -8 4 -20 12 -26 17
-6 6 -22 18 -34 26 -12 8 -29 21 -36 28 -8 7 -15 10 -15 5z"/>
<path d="M1935 4349 c-55 -38 -104 -72 -110 -76 -5 -5 -37 -26 -70 -48 -33
-22 -65 -44 -71 -50 -6 -5 -38 -28 -71 -49 l-60 -39 0 -999 c0 -549 4 -998 8
-998 4 0 95 -56 201 -125 106 -69 200 -128 208 -132 8 -3 28 -15 43 -26 l29
-20 -4 77 c-1 42 -1 76 2 76 4 0 5 90 0 185 0 17 0 193 0 392 1 199 -1 367 -5
373 -3 5 -3 10 2 10 7 0 8 59 4 185 -1 17 -1 86 -1 154 -1 68 -3 128 -6 132
-3 5 -2 9 3 9 7 0 8 59 4 185 -1 17 -1 86 -1 154 -1 68 -3 128 -6 132 -3 5 -2
9 3 9 4 0 7 37 6 82 -2 46 -2 110 -2 143 1 161 -1 266 -6 274 -3 5 -1 11 3 13
5 1 6 13 3 24 -6 20 -13 17 -106 -47z"/>
<path d="M3959 3878 c0 -35 0 -88 1 -118 1 -97 0 -144 -5 -148 -2 -3 0 -12 5
-22 5 -10 6 -20 3 -24 -3 -3 -5 -45 -4 -93 2 -124 1 -176 -4 -181 -2 -3 0 -12
5 -22 5 -10 7 -20 3 -23 -3 -3 -5 -84 -4 -179 2 -201 1 -251 -4 -257 -2 -2 0
-11 5 -21 5 -10 7 -20 3 -23 -3 -3 -5 -84 -4 -179 2 -201 1 -251 -4 -257 -2
-2 0 -11 5 -21 5 -10 6 -20 3 -24 -3 -3 -5 -45 -4 -93 1 -49 1 -108 0 -133 -1
-25 -1 -54 0 -65 0 -11 0 -40 0 -65 -1 -25 -1 -52 0 -60 1 -8 1 -26 1 -39 0
-14 5 -21 13 -18 16 6 388 242 404 256 7 6 16 11 20 11 4 1 17 9 29 18 21 18
21 19 20 757 -1 407 -5 746 -9 752 -4 7 -34 29 -65 50 -31 20 -59 40 -62 43
-3 3 -41 31 -85 61 -44 29 -86 60 -93 66 -7 7 -17 13 -21 13 -4 0 -16 8 -27
18 -24 20 -113 82 -119 82 -3 0 -5 -28 -6 -62z"/>
<path d="M1719 1639 c-4 -65 -1 -1480 3 -1484 3 -3 189 112 414 256 225 144
429 275 454 290 25 16 52 34 60 39 25 17 173 111 207 132 18 11 31 23 28 28
-6 9 -332 218 -380 243 -19 10 -35 23 -35 28 0 5 -4 9 -9 9 -5 0 -112 66 -238
146 -125 81 -282 180 -348 222 -66 41 -128 82 -137 90 -15 13 -18 13 -19 1z"/>
<path d="M4235 1620 c-16 -11 -37 -24 -45 -30 -13 -8 -135 -85 -186 -117 -10
-7 -62 -40 -114 -73 -52 -34 -104 -67 -115 -73 -11 -7 -22 -14 -25 -17 -7 -7
-90 -61 -115 -75 -26 -14 -155 -97 -228 -146 -32 -21 -60 -39 -62 -39 -2 0
-52 -31 -111 -69 -58 -39 -111 -72 -117 -74 -14 -6 9 -24 115 -92 43 -27 185
-118 316 -201 130 -83 257 -164 281 -180 24 -16 51 -33 60 -39 8 -5 55 -36
104 -67 49 -32 90 -58 92 -58 2 0 45 -27 95 -61 51 -33 94 -58 98 -55 9 10 6
1480 -4 1483 -5 2 -22 -6 -39 -17z"/>
</g>
</svg>
