<?xml version="1.0" encoding="utf-8"?><svg xmlns="http://www.w3.org/2000/svg" xmlns:xlink="http://www.w3.org/1999/xlink"><symbol viewBox="0 0 68.1 120.09" id="arrow-angel" xmlns="http://www.w3.org/2000/svg"><path d="M3.24 3.19a4.017 4.017 0 000 5.8l52.75 51-52.75 51.1a4.017 4.017 0 000 5.8c1.65 1.6 4.34 1.6 5.99 0l55.64-53.9c.83-.8 1.24-1.8 1.24-2.9 0-1-.41-2.1-1.24-2.9L9.23 3.29a4.244 4.244 0 00-5.99-.1z"/></symbol><symbol viewBox="0 0 213.3 135.2" id="arrow-classic" xmlns="http://www.w3.org/2000/svg"><path d="M2 72.4l60.6 60.7c1.3 1.4 3 2.1 4.9 2.2 1.8 0 3.6-.7 4.9-2 1.3-1.3 2-3 2-4.9 0-1.8-.7-3.6-2-4.9L23.9 75.1h182c4.1 0 7.5-3.4 7.5-7.5s-3.4-7.5-7.5-7.5H24l48.4-48.4c1.3-1.3 2-3 2-4.9s-.7-3.6-2-4.9c-1.3-1.3-3-2-4.9-2S64 .7 62.7 2L2 62.7c-1.3 1.3-2 3-2 4.9 0 1.8.7 3.6 2 4.8z"/></symbol><symbol viewBox="0 0 189.42 120.09" id="arrow-right" xmlns="http://www.w3.org/2000/svg"><path d="M187.63 55.77L133.78 1.92A6.032 6.032 0 00129.47 0h-.09c-1.61 0-3.12.63-4.26 1.77a6.06 6.06 0 00-1.79 4.31c0 1.63.63 3.16 1.79 4.32l43.1 43.02H6.62C2.97 53.42 0 56.39 0 60.04s2.97 6.62 6.62 6.62h161.49l-43.01 43.01a6.06 6.06 0 00-1.79 4.31c0 1.63.63 3.16 1.79 4.31a6.07 6.07 0 004.31 1.78c1.56 0 3.12-.59 4.31-1.78l53.9-53.9a5.978 5.978 0 001.79-4.31c.01-1.6-.64-3.17-1.78-4.31z"/></symbol><symbol viewBox="0 0 160 212.05" id="bookmark" xmlns="http://www.w3.org/2000/svg"><path d="M141.85 0H18.82C8.8 0 0 8.24 0 18v182c0 3.27.91 5.99 2.37 8.09a9.182 9.182 0 007.6 3.95c2.86 0 5.9-1.27 8.72-3.68l55.04-46.74c1.7-1.45 4.14-2.28 6.68-2.28s4.97.83 6.68 2.29l54.86 46.72c2.82 2.41 5.66 3.68 8.51 3.68 4.83 0 9.53-3.72 9.53-12.04V18c.01-9.76-8.12-18-18.14-18z"/></symbol><symbol viewBox="0 0 329 329" id="close" xmlns="http://www.w3.org/2000/svg"><path d="M194.64 164.77L322.75 36.66c8.34-8.33 8.34-21.81 0-30.14-8.33-8.33-21.81-8.33-30.14 0L164.5 134.63 36.39 6.52c-8.34-8.33-21.81-8.33-30.14 0-8.34 8.33-8.34 21.81 0 30.14l128.11 128.11L6.25 292.88c-8.34 8.33-8.34 21.81 0 30.14 4.15 4.16 9.61 6.24 15.07 6.24s10.91-2.09 15.07-6.24L164.5 194.91l128.11 128.11c4.16 4.16 9.61 6.24 15.07 6.24 5.46 0 10.91-2.09 15.07-6.24 8.34-8.33 8.34-21.81 0-30.14L194.64 164.77z"/></symbol><symbol viewBox="0 0 184 134.78" id="email" xmlns="http://www.w3.org/2000/svg"><path d="M160.75 0H23.25C10.43 0 0 10.43 0 23.25v88.27c0 12.82 10.43 23.25 23.25 23.25h137.49c12.82 0 23.25-10.43 23.25-23.25V23.25C184 10.43 173.57 0 160.75 0zm-3.64 15L92 65.3 26.89 15h130.22zm3.64 104.78H23.25c-4.55 0-8.25-3.7-8.25-8.25V24.77l72.42 55.94a7.503 7.503 0 009.16 0L169 24.77v86.75c0 4.56-3.7 8.26-8.25 8.26z"/></symbol><symbol viewBox="0 0 167.7 167.7" id="facebook-square" xmlns="http://www.w3.org/2000/svg"><path d="M167.1 42.5c-.5-9.9-2.2-15.4-3.5-19-1.7-4.5-4.2-8.5-7.7-11.8-3.3-3.4-7.3-6-11.8-7.6-3.6-1.4-9-3.1-19-3.5-10.7-.5-14-.6-41.3-.6S53.3.1 42.5.6c-9.9.5-15.4 2.2-19 3.5C19 5.8 15 8.3 11.7 11.7 8.3 15 5.7 19 4 23.5c-1.4 3.6-3.1 9-3.5 19-.4 10.8-.5 14-.5 41.4v.3c0 26.9.1 30.2.6 40.9.5 9.9 2.1 15.4 3.5 19 1.7 4.5 4.2 8.5 7.7 11.8 3.3 3.4 7.3 6 11.8 7.7 3.6 1.4 9 3.1 19 3.5 8.6.4 12.4.6 27.2.6v-66H49.6V78.2h20.2V61c0-20 12.2-31 30.1-31 8.6 0 15.9.6 18.1.9v20.9h-12.4c-9.7 0-11.6 4.6-11.6 11.4v14.9h23.2l-3 23.4H94V166h-.1v1.6c18.3 0 21.9-.1 31.2-.6 9.9-.5 15.4-2.1 19-3.5 8.9-3.4 16-10.5 19.4-19.4 1.4-3.6 3.1-9 3.5-19 .5-10.8.6-14 .6-41.3.1-27.3 0-30.5-.5-41.3z"/></symbol><symbol id="filter" viewBox="0 0 512 512" xml:space="preserve" xmlns="http://www.w3.org/2000/svg"><style>.ahst0{fill:#fff}</style><path class="ahst0" d="M0 421.5v30h362v30h90v-30h60v-30h-60v-30h-90v30H0zm362-361H0v30h362v30h90v-30h60v-30h-60v-30h-90v30zM0 180.5v30h222v30h90v-30h200v-30H312v-30h-90v30H0zm0 121v30h53.65v30h90v-30H512v-30H143.65v-30h-90v30H0z"/></symbol><symbol id="instagram-square" viewBox="0 0 241.2 241.2" xml:space="preserve" xmlns="http://www.w3.org/2000/svg"><style>.aist0{fill:#f5ede6}</style><path class="aist0" d="M169.6 120.6c0 27.1-21.9 49-49 49s-49-21.9-49-49 21.9-49 49-49 49 21.9 49 49z"/><path class="aist0" d="M235.2 33.9c-2.4-6.4-6.1-12.2-11-16.9-4.7-4.9-10.5-8.6-16.9-11-5.2-2-13-4.4-27.3-5.1-15.5-.7-20.2-.9-59.4-.9-39.3 0-43.9.1-59.4.9C46.9 1.6 39.1 4 33.9 6 27.5 8.4 21.7 12.1 17 17c-4.9 4.7-8.6 10.5-11 16.9-2 5.2-4.4 13-5.1 27.3C.2 76.7 0 81.3 0 120.6c0 39.2.2 43.9.9 59.4.7 14.3 3 22.1 5.1 27.3 2.4 6.4 6.1 12.2 11 16.9 4.7 4.9 10.5 8.6 16.9 11 5.2 2 13 4.4 27.3 5.1 15.5.7 20.1.9 59.4.9s43.9-.1 59.4-.9c14.3-.7 22.1-3 27.3-5.1 12.8-4.9 23-15.1 27.9-27.9 2-5.2 4.4-13 5.1-27.3.7-15.5.9-20.2.9-59.4 0-39.3-.1-43.9-.9-59.4-.7-14.3-3.1-22.1-5.1-27.3zM120.6 196.1c-41.7 0-75.5-33.8-75.5-75.5s33.8-75.5 75.5-75.5 75.5 33.8 75.5 75.5-33.8 75.5-75.5 75.5zm78.5-136.3c-9.7 0-17.6-7.9-17.6-17.6s7.9-17.6 17.6-17.6 17.6 7.9 17.6 17.6-7.9 17.6-17.6 17.6z"/></symbol><symbol id="link" viewBox="0 0 463.4 457.1" xml:space="preserve" xmlns="http://www.w3.org/2000/svg"><style>.ajst0{fill:#fff}</style><path class="ajst0" d="M450 0H335.6c-7.4 0-13.4 6.1-13.4 13.5s6 13.4 13.4 13.4h81.75L228.8 213.7c-5.3 5.2-5.3 13.7-.1 19 2.6 2.7 6 4 9.5 4 3.4 0 6.8-1.3 9.4-3.8l189-187.24v82.14c0 7.4 6 13.4 13.4 13.4s13.4-6 13.4-13.5V13.4C463.4 6 457.4 0 450 0z"/><path class="ajst0" d="M418.3 192.6c-1-3.7-2.1-7.4-3.3-11l-2.8-9.4c-2.4-8-10.9-12.5-18.9-10.1s-12.6 10.8-10.2 18.7l7.7 25.5c3.1 13.1 4.7 26.6 4.7 40.6 0 99.5-81.9 180.4-182.6 180.4s-182.7-81-182.7-180.4S112.1 66.5 212.7 66.5c21.2 0 41.6 3.6 60.5 10.2l14.7 6.1c7.8 3.2 16.7-.4 19.9-8.1 1.6-3.9 1.5-8 0-11.6-1.2-2.9-3.4-5.5-6.3-7.1-.2-.1-.4-.2-.5-.2-.4-.2-.9-.5-1.4-.7l-1.6-.6c-2.5-1.1-4.9-2.1-7.4-3.1-24.2-9.4-50.5-14.6-78-14.6-10.5 0-20.9.8-31 2.2C79.1 53.8 0 141.4 0 246.9c0 115.9 95.4 210.2 212.7 210.2 99 0 182.3-67.1 206-157.6 4.4-16.8 6.7-34.4 6.7-52.5.1-18.9-2.4-37-7.1-54.4z"/></symbol><symbol viewBox="0 0 512 512" id="location" xmlns="http://www.w3.org/2000/svg"><path d="M204.5 459.61v51.86l-12.54-10.13c-1.94-1.57-48.04-38.99-94.78-92.66C32.7 334.64 0 268.18 0 211.15v-5.65C0 92.74 91.74 1 204.5 1S409 92.74 409 205.5v5.65c0 4.79-.25 9.65-.71 14.57l-39.99-36.48C360.1 106.09 289.77 40.9 204.5 40.9c-90.76 0-164.6 73.84-164.6 164.6v5.65c0 96.37 124.17 213.03 164.6 248.46zm122.7-28.66h59.85V371.1H327.2v59.85zM204.5 120.71c46.75 0 84.79 38.04 84.79 84.79s-38.04 84.79-84.79 84.79-84.79-38.04-84.79-84.79 38.04-84.79 84.79-84.79zm0 39.9c-24.75 0-44.89 20.14-44.89 44.89s20.14 44.89 44.89 44.89 44.89-20.14 44.89-44.89-20.14-44.89-44.89-44.89zm280.61 243.22l-11.22-10.23v64.06c0 29.83-24.27 54.09-54.1 54.09H293.46c-29.83 0-54.1-24.27-54.1-54.09V393.6l-11.22 10.23-26.89-29.48L356.62 232.6 512 374.36l-26.89 29.47zm-51.12-46.63l-77.36-70.57-77.36 70.57v100.46c0 7.83 6.37 14.2 14.2 14.2H419.8c7.83 0 14.2-6.37 14.2-14.2V357.2z"/></symbol><symbol viewBox="0 0 391 519" id="location-fill" xmlns="http://www.w3.org/2000/svg"><path d="M195.5 0C87.7 0 0 87.7 0 195.5 0 330 174.3 505.9 181.7 513.3c3.7 3.7 8.6 5.7 13.8 5.7 5.2 0 10.1-2 13.8-5.7C216.7 505.9 391 330 391 195.5 391 87.7 303.3 0 195.5 0zm0 295c-54.9 0-99.5-44.6-99.5-99.5S140.6 96 195.5 96s99.5 44.6 99.5 99.5-44.6 99.5-99.5 99.5z"/></symbol><symbol id="mail-fill" viewBox="0 0 512 512" xml:space="preserve" xmlns="http://www.w3.org/2000/svg"><style>.amst0{fill:#735f69}</style><path class="amst0" d="M507.5 101.7L352.2 256l155.3 154.3c2.8-5.9 4.5-12.4 4.5-19.3V121c0-6.9-1.7-13.4-4.5-19.3zM467 76H45c-6.9 0-13.4 1.7-19.3 4.5L224.2 278c17.5 17.5 46.1 17.5 63.6 0L486.3 80.5c-5.9-2.8-12.4-4.5-19.3-4.5zM4.5 101.7C1.7 107.6 0 114.1 0 121v270c0 6.9 1.7 13.4 4.5 19.3L159.8 256 4.5 101.7z"/><path class="amst0" d="M331 277.2l-22 22c-29.2 29.2-76.8 29.2-106.1 0l-22-22L25.7 431.5c5.9 2.8 12.4 4.5 19.3 4.5h422c6.9 0 13.4-1.7 19.3-4.5L331 277.2z"/></symbol><symbol id="map-marker" viewBox="0 0 391 519" xml:space="preserve" xmlns="http://www.w3.org/2000/svg"><style>.anst0{fill:#a19c9f}</style><path class="anst0" d="M195.5 0C87.7 0 0 87.7 0 195.5c0 134.53 174.31 310.36 181.73 317.77 3.69 3.69 8.58 5.73 13.77 5.73 5.19 0 10.08-2.03 13.77-5.73C216.69 505.86 391 330.03 391 195.5 391 87.7 303.3 0 195.5 0zm0 39C281.79 39 352 109.21 352 195.5c0 98.22-116.5 232.56-156.5 275.76C155.5 428.06 39 293.72 39 195.5 39 109.21 109.21 39 195.5 39z"/><path class="anst0" d="M195.5 295c54.86 0 99.5-44.64 99.5-99.5S250.36 96 195.5 96 96 140.64 96 195.5s44.64 99.5 99.5 99.5zm0-160c33.36 0 60.5 27.14 60.5 60.5S228.86 256 195.5 256 135 228.86 135 195.5s27.14-60.5 60.5-60.5z"/></symbol><symbol id="options" xml:space="preserve" viewBox="0 0 210.51 209.91" xmlns="http://www.w3.org/2000/svg"><style>.aost0{fill:#7f003e}</style><circle class="aost0" cx="165" cy="164.4" r="45.51"/><path class="aost0" d="M68.25 209.91H22.78C10.2 209.91 0 199.71 0 187.13v-45.47c0-12.58 10.2-22.78 22.78-22.78h45.47c12.58 0 22.78 10.2 22.78 22.78v45.47c0 12.58-10.2 22.78-22.78 22.78zm0-118.88H22.78C10.2 91.03 0 80.83 0 68.25V22.78C0 10.2 10.2 0 22.78 0h45.47c12.58 0 22.78 10.2 22.78 22.78v45.47c0 12.58-10.2 22.78-22.78 22.78zm119.49 0h-45.47c-12.58 0-22.78-10.2-22.78-22.78V22.78C119.49 10.2 129.68 0 142.26 0h45.47c12.58 0 22.78 10.2 22.78 22.78v45.47c0 12.58-10.19 22.78-22.77 22.78z"/></symbol><symbol id="phone" viewBox="0 0 512 512" xml:space="preserve" xmlns="http://www.w3.org/2000/svg"><style>.apst0{fill:#fff}</style><path class="apst0" d="M367.97 512c-16.53 0-32.91-2.92-48.94-8.74-70.6-25.64-136.12-67.41-189.5-120.79S34.39 263.56 8.74 192.97C.5 170.28-1.93 146.86 1.51 123.36c3.23-22.02 11.76-43.39 24.66-61.81 12.96-18.5 30.24-33.89 49.97-44.5C97.2 5.74 120.16 0 144.42 0c7.54 0 14.06 5.27 15.64 12.65l25.11 117.19c1.14 5.31-.49 10.83-4.33 14.67l-42.91 42.91c40.48 80.48 106.17 146.17 186.65 186.65l42.91-42.91c3.84-3.84 9.36-5.47 14.67-4.33l117.19 25.11c7.38 1.58 12.65 8.1 12.65 15.64 0 24.26-5.74 47.22-17.05 68.26-10.61 19.73-26 37.01-44.5 49.97-18.42 12.91-39.79 21.43-61.81 24.66-6.9 1.02-13.8 1.53-20.67 1.53zM131.63 32.7C99.64 36.23 71.24 53 52.39 79.91c-21.21 30.26-26.15 67.49-13.57 102.13 49.3 135.72 155.42 241.84 291.14 291.14 34.64 12.58 71.86 7.64 102.13-13.57 26.91-18.86 43.68-47.25 47.22-79.25l-95.34-20.43-44.81 44.81a15.996 15.996 0 01-18.12 3.17C225.85 363.2 148.8 286.15 104.08 190.97c-2.87-6.1-1.6-13.35 3.17-18.12l44.81-44.81-20.43-95.34zM496 271.99c-8.84 0-16-7.16-16-16C480 132.48 379.52 32 256.01 32c-8.84 0-16-7.16-16-16s7.16-16 16-16c68.38 0 132.66 26.63 181.01 74.98S512 187.61 512 255.99c0 8.84-7.16 16-16 16z"/><path class="apst0" d="M432 271.99c-8.84 0-16-7.16-16-16C416 167.77 344.23 96 256.01 96c-8.84 0-16-7.16-16-16s7.16-16 16-16C361.87 64 448 150.12 448 255.99c0 8.84-7.16 16-16 16z"/><path class="apst0" d="M368 271.99c-8.84 0-16-7.16-16-16 0-52.93-43.06-96-96-96-8.84 0-16-7.16-16-16s7.16-16 16-16c70.58 0 127.99 57.42 127.99 127.99.01 8.85-7.15 16.01-15.99 16.01z"/></symbol><symbol viewBox="0 0 512 512" id="plan" xmlns="http://www.w3.org/2000/svg"><path d="M512 60v210c0 33.09-26.91 60-60 60h-34v-40h34c11.03 0 20-8.97 20-20V163h-53v20h-40v-80h40v20h53V60c0-11.03-8.97-20-20-20H290v83h20v40h-80v-40h20V40h-55V0h257c33.09 0 60 26.91 60 60zM290 232h-40v220c0 11.03-8.97 20-20 20h-33v40h33c33.09 0 60-26.91 60-60V330h57v-40h-57v-58zm-149 21H40V60c0-11.03 8.97-20 20-20h35V0H60C26.91 0 0 26.91 0 60v392c0 33.09 26.91 60 60 60h36v-40H60c-11.03 0-20-8.97-20-20V293h101v19h40v-80h-40v21z"/></symbol><symbol viewBox="0 0 426.667 426.667" id="plus" xmlns="http://www.w3.org/2000/svg"><path d="M405.332 192H234.668V21.332C234.668 9.559 225.109 0 213.332 0 201.559 0 192 9.559 192 21.332V192H21.332C9.559 192 0 201.559 0 213.332c0 11.777 9.559 21.336 21.332 21.336H192v170.664c0 11.777 9.559 21.336 21.332 21.336 11.777 0 21.336-9.559 21.336-21.336V234.668h170.664c11.777 0 21.336-9.559 21.336-21.336 0-11.773-9.559-21.332-21.336-21.332zm0 0"/></symbol><symbol id="search" viewBox="0 0 767.5 547.4" xml:space="preserve" xmlns="http://www.w3.org/2000/svg"><style>.asst0{fill:#fff}</style><path class="asst0" d="M425.2 142.2c-11.6-18.3-26.9-33.4-45.4-44.9-32.4-19.9-70.6-26.1-107.6-17.3s-68.4 31.4-88.3 63.8c-17 27.5-24 59-20.2 91 3.6 31.1 17.5 60.5 39.1 82.8.3.3.5.6.8.9l.5.5c9.9 10.1 21.2 18.6 33.6 25.4 2.2 1.2 4.7 1.8 7.2 1.8 1.4 0 2.9-.2 4.3-.6 3.9-1.1 7.1-3.7 9-7.3 3.3-6.1 2.1-13.6-3-18.3l-.6-.6-.8-.4c-9.4-4.9-18-11.2-25.8-18.7v-.2l-.5-.4c-2.4-2.3-4.8-4.8-7.1-7.4-10-11.8-17.3-25.1-21.8-39.6-.3-1-.6-2.1-.9-3.1-.3-1.1-.6-2.1-.8-3.1l-.5-2c-.2-.7-.3-1.4-.5-2.2-.2-.7-.3-1.5-.4-2.2-.1-.8-.3-1.5-.4-2.3-1.6-9.9-1.9-20-.9-30.1.2-2.1.5-4.3.9-6.4l.1-.6c0-.3.1-.6.2-.9.1-.5.2-.9.3-1.5.2-1 .4-2.1.6-3.1l.3-1.5.3-1.2.1-.6c3.2-12.8 8.5-24.8 15.8-35.6l2-2.7c3.6-5 7.6-9.7 11.9-14l1.8-1.8c2.8-2.6 5.7-5.1 8.7-7.4l1.5-1.2.1-.1c.4-.3.8-.6 1.3-1l1.2-.9 1.1-.8c24.2-16.5 53.5-22.7 82.5-17.6 17.4 3.1 34 10.2 47.9 20.7l.5.3h.6c10.1 7.9 18.8 17.4 25.6 28.3.9 1.4 2 2.7 3.3 3.7 5 4 12.1 4.4 17.5 1 3.4-2.2 5.8-5.5 6.7-9.5 1-3.7.3-7.7-1.8-11.1zm95.3 219.1v64.2h64.2v-64.2h-64.2zm0 0v64.2h64.2v-64.2h-64.2zm0 0v64.2h64.2v-64.2h-64.2zm31.4-203.9L336.2 354.1l23 25.2 7.3-6.6 21.8-19.8v126c0 37.8 30.7 68.5 68.5 68.5H647c37.8 0 68.5-30.7 68.5-68.5v-126l21.8 19.8 7.3 6.6 23-25.2-215.7-196.7zm129.4 170l-.2 151.4c0 19-15.4 34.4-34.4 34.4H456.6c-19 0-34.4-15.4-34.4-34.4V321.6l4.2-3.9L543 211.4l8.8-8 8.8 8 116.6 106.3 4.2 3.9-.1 5.8zm-160.8 98.1h64.2v-64.2h-64.2v64.2zm0-64.2v64.2h64.2v-64.2h-64.2zm0 0v64.2h64.2v-64.2h-64.2zm0 0v64.2h64.2v-64.2h-64.2z"/><path class="asst0" d="M482.3 96.1c-.7-1.1-1.3-2.2-2-3.2-2.9-4.4-6-8.5-9.3-12.5C431.7 31.4 371.4 0 303.9 0 185.9 0 90 96 90 214c0 44.1 13.3 86.4 38.6 122.5l-15.3 15.3-2.7-2.7c-2.5-2.5-5.7-3.8-9.2-3.8-3.5 0-6.7 1.4-9.2 3.8l-76.4 76.5c-21.1 21.1-21.1 55.5 0 76.6C26.1 512.4 39.7 518 54.1 518s28.1-5.6 38.3-15.9l76.4-76.5c2.5-2.5 3.8-5.7 3.8-9.2 0-3.5-1.3-6.7-3.8-9.2l-2.6-2.6 15.3-15.3c23.2 16.3 49 27.6 76.2 33.6 3.5.8 7 1.5 10.6 2.1h.3c3.3.4 6.6-.4 9.3-2.4 2.8-2 4.6-5.1 5.2-8.5.9-5.9-2.3-11.7-7.8-14l-.6-.2-.7-.1c-5.3-.8-10.6-1.9-15.7-3.4-38-9.5-71.4-30.5-96.3-59.2-28.7-33-46.1-76.1-46.1-123.2 0-103.6 84.3-188 188-188 17.4 0 34.3 2.4 50.3 6.8 37.7 10.5 70.6 32.4 94.8 61.8 4.6 5.1 8.7 10.7 12.3 16.6l.3.6.5.5c4.3 4.1 10.8 4.8 15.9 1.7 3-1.8 5-4.7 5.8-8.1.9-3.3.3-6.8-1.5-9.8zM74 483.8c-5.3 5.3-12.4 8.2-19.9 8.2s-14.6-2.9-19.9-8.2c-11-11-11-28.9 0-39.8l38.2-38.2 39.8 39.8L74 483.8zm56.6-56.6l-39.8-39.8 10.7-10.7 39.8 39.8-10.7 10.7zm14.3-70.2c5.1 5.7 10.5 11.1 16.1 16.1l-13.2 13.2-16.1-16.1 13.2-13.2z"/></symbol><symbol id="square" viewBox="0 0 512 511" xml:space="preserve" xmlns="http://www.w3.org/2000/svg"><style>.atst0{fill:#ffa800}</style><path class="atst0" d="M512 441.9L442.9 511l-28.3-28.3 19.8-19.8H104c-30.8 0-55.9-25.1-55.9-55.9V77.5L28.3 97.3 0 69.1 69.1 0l69.1 69.1L110 97.4 88.2 75.6v206.3l.2-.2v56.5l-.2.2v56.3l.5-.5c2 14.6 13.6 26.2 28.1 28.4l-.4.4h320.2l-21.8-21.8 28.3-28.3 68.9 69z"/><path class="atst0" d="M273.1 181.2h67v67h-67z"/><path class="atst0" d="M306 26.1L132 184.8l30.1 33 12.6-11.5V278c0 33.4 27.2 60.6 60.6 60.6h141.5c33.4 0 60.6-27.2 60.6-60.6v-71.7l12.6 11.5 30.1-33L306 26.1zm86.7 252c0 8.8-7.1 15.9-15.9 15.9H235.3c-8.8 0-15.9-7.1-15.9-15.9V165.6l86.6-79 86.6 79v112.5h.1z"/></symbol><symbol id="telegram" viewBox="0 0 512 512" xml:space="preserve" xmlns="http://www.w3.org/2000/svg"><style>.aust0{fill:#4f0328}</style><path class="aust0" d="M256 512c141.16 0 256-114.84 256-256S397.16 0 256 0 0 114.84 0 256s114.84 256 256 256zm0-480c123.52 0 224 100.48 224 224S379.52 480 256 480 32 379.52 32 256 132.48 32 256 32z"/><path class="aust0" d="M168.45 301.97l33.45-14.53-9.39 9.41a15.995 15.995 0 00-4.69 11.31v62.61c0 14.34 17.32 21.29 27.31 11.31l33.58-33.58 73.17 36.59c9.47 4.74 20.93-.87 22.89-11.46l41.75-229.57c2.2-12.35-9.96-22.34-21.59-17.77L93.65 232.47c-12.16 4.74-13.78 21.38-2.77 28.39l62.59 39.94c4.48 2.86 10.14 3.31 14.98 1.17zm181.46-135.4l-32.79 180.37-64.43-32.19a15.969 15.969 0 00-18.45 3.01l-14.42 14.42v-17.34l64.15-64.15c12.44-12.44-1.56-32.96-17.69-25.98L163.52 269.3l-28.89-18.43 215.28-84.3z"/></symbol><symbol viewBox="0 0 512 512" id="telegram-fill" xmlns="http://www.w3.org/2000/svg"><path d="M256 512c141.4 0 256-114.6 256-256S397.4 0 256 0 0 114.6 0 256s114.6 256 256 256zM117.1 250.5L364 155.3c11.5-4.1 21.5 2.8 17.7 20.1l-42 198c-3.1 14-11.5 17.5-23.1 10.8l-64-47.2-30.9 29.7c-3.4 3.4-6.3 6.3-12.9 6.3l4.5-65.1L332 200.8c5.2-4.5-1.2-7.1-8-2.6l-146.6 92.3-63.2-19.7c-13.7-4.4-14-13.7 2.9-20.3z"/></symbol><symbol viewBox="0 0 241.2 241.2" id="telegram-square" xmlns="http://www.w3.org/2000/svg"><path d="M240.3 61.2c-.7-14.3-3.1-22.1-5.1-27.3-2.4-6.4-6.1-12.2-11-16.9-4.7-4.9-10.5-8.6-16.9-11-5.2-2-13-4.4-27.3-5.1-15.5-.7-20.2-.9-59.4-.9-39.3 0-43.9.1-59.4.9C46.9 1.6 39.1 4 33.9 6 27.5 8.4 21.7 12.1 17 17c-4.9 4.7-8.6 10.5-11 16.9-2 5.2-4.4 13-5.1 27.3C.2 76.7 0 81.3 0 120.6c0 39.2.2 43.9.9 59.4.7 14.3 3 22.1 5.1 27.3 2.4 6.4 6.1 12.2 11 16.9 4.7 4.9 10.5 8.6 16.9 11 5.2 2 13 4.4 27.3 5.1 15.5.7 20.1.9 59.4.9s43.9-.1 59.4-.9c14.3-.7 22.1-3 27.3-5.1 12.8-4.9 23-15.1 27.9-27.9 2-5.2 4.4-13 5.1-27.3.7-15.5.9-20.2.9-59.4 0-39.3-.1-43.9-.9-59.4zm-42.4 1.3l-25.6 120.6c-1.9 8.5-7 10.7-14.1 6.6l-39-28.8-18.8 18.1c-2.1 2.1-3.8 3.8-7.9 3.8l2.7-39.7 72.3-65.3c3.2-2.7-.7-4.3-4.9-1.6l-89.3 56.2-38.5-12c-8.3-2.7-8.5-8.3 1.8-12.4L187 50c7.1-2.3 13.2 1.9 10.9 12.5z"/></symbol><symbol id="viber" viewBox="0 0 512 512" xml:space="preserve" xmlns="http://www.w3.org/2000/svg"><style>.axst0{fill:#4f0328}</style><path class="axst0" d="M135 434.73c-.66 31.25-4.35 66.97 22.85 75.58 26.67 8.68 42.13-12.76 76.91-56.28 129.66 8.85 244.12-27.61 259.43-158.31 13.72-116.2-4.01-203.14-49.64-244.5-66.92-64.13-284.76-73.11-364.5 3.11-32.84 34.16-48.84 84.27-50.33 157.72C28.5 272.04 26.03 394.71 135 434.73zM61.72 212.71c1.32-64.92 14.46-108.2 40.9-135.72 66.58-63.62 263.89-56.26 320.11-2.33 37.53 33.98 52.01 113.19 39.7 217.32-11.18 95.49-72.66 111.79-95.81 117.91-47.94 12.65-93.63 15.4-137.47 11.61-11.54-1.24-16.09 9.69-20.29 13.65-20.89 25.11-35.95 43.24-39.85 45.67-2.88-4.29-2.43-24.58-2.09-40.87-1.05-7.34 5.53-27.63-11.61-32.21-96.96-28.63-94.77-136.85-93.59-195.03z"/><path class="axst0" d="M122.92 170.24c17.09 34.07 33.75 94.27 97.73 146.67 22.21 18.3 88.68 60.54 114.71 60.54 37.18 0 79.66-58.5 48.55-84.59-13.99-13.67-33.69-27.14-46.31-34.54-.02-.02-.04-.02-.04-.02-32.79-18.97-50.75 15.94-52.89 17.3-48.04 43.01-107.22-31.7-65.75-67.84 5.1-6.34 35.52-21.01 17.47-54.38-16-28.95-26.56-38.91-32.53-47.17-31.51-39.33-99.69 26.01-80.94 64.03zm195.71 114.62c2.18 1.37 21.14 9.66 43.78 31.7 2.88 2.41-16.32 30.31-28.54 28.71-2.41-1.09-19.84-5.25-57.28-28.14 35.54-12.06 35.24-30.99 42.04-32.27zm-142.2-158.4c1.32-.7 2.01-.75 1.94-.92 6.14 8.55 15.32 16.7 29.95 43.18 3.88 7.19-5.7 9.98-11.88 16.3-8.81 7.81-15.27 17.11-19.24 27.37-13.1-24.73-18.97-42.54-24.94-55-2.39-11.34 14.01-25.12 24.17-30.93z"/><path class="axst0" d="M273.32 182.4c.23.02 23.45 2.99 27.61 27.97 3.52 21.21 35.01 15.51 31.55-5.25-6.46-38.81-39.13-52.63-55.53-54.51-21.01-2.36-24.62 29.36-3.63 31.79z"/><path class="axst0" d="M256.66 113.41c.36 0 50.73-.9 83.52 34.18 32.38 34.65 25.24 85.01 25.17 85.46-3.26 20.76 28.27 26.26 31.59 4.97.43-2.67 9.83-66.05-33.39-112.3-42.9-45.91-105.3-44.48-107.88-44.31-21.86.72-19.21 33.66.99 32z"/></symbol><symbol viewBox="0 0 512 512" id="viber-fill" xmlns="http://www.w3.org/2000/svg"><path d="M307.2 0H204.8C106 0 25.6 80.4 25.6 179.2V256c0 69.4 40 132.3 102.4 162v85.5c0 7.4 9.3 11.3 14.6 6l74.3-74.3h90.3c98.8 0 179.2-80.4 179.2-179.2v-76.8C486.4 80.4 406 0 307.2 0zm-34.1 128c-2.5 0-5.1.1-7.6.4-4.7.5-8.9-2.9-9.4-7.5-.5-4.7 2.9-8.9 7.5-9.4 3.1-.3 6.3-.5 9.5-.5 47.1 0 85.3 38.3 85.3 85.3 0 3.2-.2 6.3-.5 9.5-.5 4.6-4.8 8.1-9.4 7.5-4.6-.5-8.1-4.8-7.5-9.4.3-2.5.4-5.1.4-7.6-.1-37.7-30.7-68.3-68.3-68.3zm51.2 68.3c0 4.6-3.9 8.5-8.5 8.5-4.7 0-8.5-3.9-8.5-8.5 0-18.8-15.3-34.1-34.1-34.1-4.7 0-8.5-3.8-8.5-8.5s3.8-8.5 8.5-8.5c28.1-.1 51.1 22.9 51.1 51.1zm60.5 125.2c-2.5 11-8 21-16 29-10.9 10.9-25.7 16.5-43.4 16.5-4.7 0-9.7-.4-14.8-1.2-40.8-6.4-97.6-26.4-134.6-63.3l-.5-.5c-36.9-37-56.9-93.8-63.3-134.6-3.8-24.3 1.5-44.4 15.3-58.2 8-8 18-13.5 29-16 1.1-.3 2.3-.3 3.4-.1l41.6 7.7c3.4.6 6.1 3.3 6.8 6.7l12.1 60.3c.6 2.8-.3 5.7-2.3 7.7l-24.4 24.4c20.2 43.1 43.1 66.1 84.4 84.6l24.5-24.5c2-2 4.9-2.9 7.7-2.3l60.3 12.1c3.4.7 6.1 3.4 6.7 6.8l7.7 41.6c.1 1 0 2.2-.2 3.3zm4.6-97.6c-1.1 4.6-6 7.5-10.6 6.3-4.4-1.2-7.1-5.8-6-10.2 1.8-7.7 2.7-15.7 2.7-23.6 0-56.5-45.9-102.4-102.4-102.4-2.6 0-5.3.1-7.9.3-4.7.4-8.8-3.2-9.2-7.9-.4-4.7 3.2-8.8 7.9-9.2 3-.2 6.1-.3 9.2-.3 65.9 0 119.5 53.6 119.5 119.5 0 9.2-1.1 18.5-3.2 27.5z"/></symbol><symbol id="whatsapp" viewBox="0 0 512 512" xml:space="preserve" xmlns="http://www.w3.org/2000/svg"><style>.azst0{fill:#4f0328}</style><path class="azst0" d="M439.28 72.72C392.38 25.82 330.04 0 263.71 0h-.02c-32.8 0-64.77 6.36-95.01 18.88-30.24 12.53-57.34 30.64-80.54 53.84-46.89 46.89-72.72 109.25-72.72 175.57 0 39.55 9.54 78.86 27.62 113.88L1.31 481.39c-2.94 8.41-.86 17.55 5.45 23.85 4.41 4.41 10.21 6.76 16.18 6.76 2.56 0 5.14-.43 7.67-1.31l119.23-41.73c35.02 18.08 74.32 27.62 113.88 27.62 66.32 0 128.67-25.83 175.57-72.72C486.17 376.96 512 314.61 512 248.29s-25.82-128.67-72.72-175.57zm-21.24 329.9c-41.22 41.23-96.04 63.93-154.33 63.93-35.66 0-71.09-8.82-102.46-25.52-5.69-3.02-12.41-3.54-18.45-1.43L34.48 477.52 72.4 369.2c2.11-6.04 1.59-12.77-1.43-18.45-16.69-31.36-25.52-66.79-25.52-102.46 0-58.3 22.7-113.11 63.93-154.33C150.6 52.74 205.4 30.04 263.7 30.03h.02c58.3 0 113.11 22.7 154.33 63.93 41.23 41.22 63.93 96.03 63.93 154.33s-22.71 113.11-63.94 154.33z"/><path class="azst0" d="M355.98 270.47c-11.42-11.42-30.01-11.42-41.43 0l-12.49 12.49c-31.02-16.9-56.12-42-73.03-73.02l12.49-12.49c11.43-11.42 11.43-30.01 0-41.43l-33.66-33.66c-11.42-11.42-30.01-11.42-41.43 0l-26.93 26.93c-15.43 15.43-16.2 41.95-2.17 74.68 12.18 28.42 34.47 59.65 62.76 87.95s59.53 50.58 87.95 62.76c15.55 6.66 29.7 9.99 41.92 9.99 13.5 0 24.66-4.06 32.76-12.16l26.93-26.93c5.54-5.54 8.58-12.89 8.58-20.71 0-7.83-3.05-15.18-8.58-20.71l-33.67-33.69zm-14.5 80.79c-4.4 4.4-17.94 5.95-41.61-4.2-24.99-10.71-52.89-30.74-78.54-56.4s-45.68-53.55-56.39-78.54c-10.14-23.67-8.6-37.21-4.2-41.61l26.41-26.41 32.62 32.63-15.64 15.64c-7.07 7.07-8.78 17.79-4.24 26.68 20.56 40.31 52.73 72.49 93.05 93.05 8.89 4.54 19.62 2.83 26.69-4.24l15.64-15.64 32.63 32.63-26.42 26.41z"/></symbol><symbol viewBox="0 0 512.3 512.3" id="whatsapp-fill" xmlns="http://www.w3.org/2000/svg"><path d="M391.6 38.8C350.9 13.5 303.9.1 256 .1 114.6.2 0 114.8.1 256.2c0 49 14.1 96.9 40.5 138.1L.7 497.6c-2.1 5.5.6 11.7 6.1 13.8 1.2.5 2.5.7 3.9.7 1.2 0 2.4-.2 3.6-.6L121 473.4c120 74.7 277.9 38 352.6-82s38-277.8-82-352.6zm-7.6 292c-5.4 31.1-32.5 53.7-64 53.3-33.5 0-97.9-40.1-124.9-67.1S128 225.6 128 192.1c-.3-31.5 22.3-58.6 53.3-64h21.3c4 0 7.7 2.3 9.5 5.9 0 0 12.9 26.1 21.3 42.5 9.5 18.5-8.3 40.3-18.5 50.5 6.1 15.9 15.4 30.5 27.2 42.8 12.3 11.8 26.9 21.1 42.8 27.2 10.2-10.2 32-28 50.5-18.5 16.4 8.5 42.5 21.3 42.5 21.3 3.6 1.8 6 5.5 6 9.6v21.4h.1z"/></symbol><symbol viewBox="0 0 240.5 168.4" id="youtube" xmlns="http://www.w3.org/2000/svg"><path d="M204.5 0H35.9C16.1 0 0 16.1 0 36v96.4c0 19.9 16.1 36 35.9 36h168.7c19.8 0 35.9-16.1 35.9-36V36c0-19.8-16.1-35.9-36-36zM96.1 124.9V34.4l68.7 45.3-68.7 45.2z"/></symbol></svg>