<?xml version="1.0" encoding="utf-8"?>
<!-- Generator: Adobe Illustrator 25.0.1, SVG Export Plug-In . SVG Version: 6.00 Build 0)  -->
<svg version="1.1" id="Слой_1" xmlns="http://www.w3.org/2000/svg" xmlns:xlink="http://www.w3.org/1999/xlink" x="0px" y="0px"
	 width="809.7px" height="272.7px" viewBox="0 0 809.7 272.7" style="enable-background:new 0 0 809.7 272.7;" xml:space="preserve"
	>
<style type="text/css">
	.st0{fill:url(#SVGID_1_);}
	.st1{fill:url(#SVGID_2_);}
	.st2{fill:#FFFFFF;}
</style>
<g>
	
		<linearGradient id="SVGID_1_" gradientUnits="userSpaceOnUse" x1="261.2408" y1="84.697" x2="10.7992" y2="191.003" gradientTransform="matrix(1 0 0 -1 0 274)">
		<stop  offset="0" style="stop-color:#394170"/>
		<stop  offset="9.260000e-02" style="stop-color:#3A4472"/>
		<stop  offset="0.2471" style="stop-color:#3C4C7B"/>
		<stop  offset="0.4443" style="stop-color:#405989"/>
		<stop  offset="0.6766" style="stop-color:#4072A4"/>
		<stop  offset="0.9358" style="stop-color:#26A1D7"/>
		<stop  offset="1" style="stop-color:#03B1EA"/>
	</linearGradient>
	<path class="st0" d="M136,0.2C60.9,0.2,0,61,0,136.1s60.9,136,136,136s136-60.9,136-136S211.1,0.2,136,0.2z M136.7,198.5
		c-34.4,0-62.3-27.9-62.3-62.3c0-34.4,27.9-62.3,62.3-62.3c34.4,0,62.3,27.9,62.3,62.3C199,170.6,171.1,198.5,136.7,198.5z"/>
	
		<linearGradient id="SVGID_2_" gradientUnits="userSpaceOnUse" x1="132.8766" y1="228.0119" x2="213.1628" y2="47.686" gradientTransform="matrix(1 0 0 -1 0 274)">
		<stop  offset="0" style="stop-color:#414C8D"/>
		<stop  offset="8.580000e-02" style="stop-color:#424F8F"/>
		<stop  offset="0.235" style="stop-color:#475694"/>
		<stop  offset="0.4299" style="stop-color:#4E649D"/>
		<stop  offset="0.663" style="stop-color:#587FAE"/>
		<stop  offset="0.9255" style="stop-color:#65B5CE"/>
		<stop  offset="1" style="stop-color:#6ACBDB"/>
	</linearGradient>
	<path class="st1" d="M173,37.5c-54.5,0-98.7,44.2-98.7,98.7c0-34.4,27.9-62.3,62.3-62.3c34.4,0,62.3,27.9,62.3,62.3
		c0,34.4-27.9,62.3-62.3,62.3c-34.4,0-62.3-27.9-62.3-62.3c0,54.5,44.2,98.7,98.7,98.7s98.7-44.2,98.7-98.7
		C271.7,81.7,227.5,37.5,173,37.5z"/>
</g>
<g>
	<path class="st2" d="M341.8,139.4H322l-3.7,17.3h-23.1L314,83.1c0.5-1.9,1.4-3.5,2.8-4.7s3-1.8,4.8-1.8h20.6c1.8,0,3.4,0.6,4.8,1.8
		c1.4,1.2,2.3,2.8,2.8,4.7l18.7,73.5h-23.1L341.8,139.4z M338.1,121.8l-3.5-17.2c-0.6-3.6-1-6.7-1.3-9.2h-2.8
		c-0.4,3.6-0.8,6.7-1.3,9.2l-3.5,17.2C325.7,121.8,338.1,121.8,338.1,121.8z"/>
	<path class="st2" d="M436.9,156.7h-23.7l-4.7-23.8c-0.4-2.2-1.1-3.6-1.9-4.4c-0.9-0.7-2.3-1.1-4.2-1.1h-7v29.2H373v-80
		c7.1-0.8,17.3-1.2,30.6-1.2c10.9,0,18.6,1.8,23.4,5.3s7,9.9,7,19c0,11.6-4.9,17.9-14.6,19v0.7c6.5,0.9,10.5,5.1,11.8,12.5
		L436.9,156.7z M395.3,109.7h7.8c3.3,0,5.5-0.5,6.5-1.6s1.6-3.3,1.6-6.6s-0.5-5.5-1.6-6.6s-3.3-1.6-6.5-1.6h-7.8V109.7z"/>
	<path class="st2" d="M501.8,95.4h-20.2v61.2h-22.7V95.4h-20.2V76.6h63L501.8,95.4L501.8,95.4z"/>
	<path class="st2" d="M556.1,129.6l-14.3-7c-5.8-2.9-10-6.1-12.4-9.8c-2.4-3.7-3.7-8.4-3.7-14.3c0-9,2.2-15.1,6.6-18.5
		s12.1-5.1,23.1-5.1c10.5,0,19.3,1.3,26.2,4.1l-1.4,16.1c-8.4-0.2-16.8-0.2-25.4-0.2c-2.7,0-4.4,0.2-5.3,0.6
		c-0.9,0.4-1.4,1.2-1.4,2.4c0,1.1,0.4,2,1.3,2.7c0.9,0.7,2.5,1.6,5,2.7l13.1,6c5.9,2.9,10.1,6.2,12.5,9.9s3.7,8.5,3.7,14.5
		c0,9.1-2.1,15.4-6.4,19c-4.3,3.6-12,5.4-23.1,5.4c-9.4,0-18.7-1.3-27.9-3.9l1.4-17.6c13.8,0.4,22.5,0.6,26.2,0.6
		c2.9,0,4.8-0.2,5.7-0.6s1.4-1.1,1.4-2.2s-0.3-2-1-2.7C559.3,131.2,558,130.4,556.1,129.6z"/>
	<path class="st2" d="M614.3,156.7h-22.5v-80h22.5V156.7z"/>
	<path class="st2" d="M683.9,95.4h-20.2v61.2H641V95.4h-20.2V76.6h63L683.9,95.4L683.9,95.4z"/>
	<path class="st2" d="M743.2,137.9l1,17.8c-7,1-19.5,1.5-37.5,1.5c-5,0-9-1.7-12.2-5.1c-3.2-3.4-4.8-7.8-4.8-13.2V94.4
		c0-5.4,1.6-9.8,4.8-13.2c3.2-3.4,7.2-5.1,12.2-5.1c18,0,30.5,0.5,37.5,1.5l-1,17.8h-26.4c-1.3,0-2.4,0.4-3.1,1.2
		c-0.8,0.8-1.2,1.8-1.2,3v7.8h27v16.7h-27v9.6c0,1.2,0.4,2.2,1.2,3c0.8,0.8,1.8,1.2,3.1,1.2L743.2,137.9L743.2,137.9z"/>
	<path class="st2" d="M780.7,129.6l-14.3-7c-5.8-2.9-10-6.1-12.4-9.8c-2.4-3.7-3.7-8.4-3.7-14.3c0-9,2.2-15.1,6.6-18.5
		S769,75,780,75c10.5,0,19.3,1.3,26.2,4.1l-1.4,16.1C796.5,95,788,95,779.5,95c-2.7,0-4.4,0.2-5.3,0.6c-0.9,0.4-1.4,1.2-1.4,2.4
		c0,1.1,0.4,2,1.3,2.7c0.9,0.7,2.5,1.6,5,2.7l13.1,6c5.9,2.9,10.1,6.2,12.5,9.9s3.7,8.5,3.7,14.5c0,9.1-2.1,15.4-6.4,19
		c-4.3,3.6-12,5.4-23.1,5.4c-9.4,0-18.7-1.3-27.9-3.9l1.4-17.6c13.8,0.4,22.5,0.6,26.2,0.6c2.9,0,4.8-0.2,5.7-0.6s1.4-1.1,1.4-2.2
		s-0.3-2-1-2.7C784,131.2,782.7,130.4,780.7,129.6z"/>
</g>
<g>
	<path class="st2" d="M338.9,185.4l-7.9,27c-0.2,0.7-0.7,1.1-1.4,1.1h-3.1c-0.7,0-1.2-0.4-1.4-1.2l-5-20.1c-0.1-0.5-0.3-1.2-0.5-2.1
		s-0.4-1.7-0.5-2.2h-0.6l-1,4.4l-5,20.1c-0.2,0.8-0.6,1.2-1.4,1.2h-3c-0.7,0-1.2-0.4-1.4-1.1l-7.9-27h3.5l6,21.5
		c0.2,0.7,0.5,2,1,4.1h0.7l1-4.1l5.1-20.4c0.2-0.8,0.6-1.2,1.3-1.2h3c0.7,0,1.1,0.4,1.3,1.2l5.1,20.3l0.9,4.1h0.7
		c0.5-2.2,0.8-3.6,0.9-4.1l6-21.5L338.9,185.4L338.9,185.4z"/>
	<path class="st2" d="M359.5,201.2h-12.6c0.2,3.7,1,6.3,2.3,7.7c1.3,1.4,3.5,2.1,6.5,2.1c2.6,0,5.5-0.2,8.7-0.7l0.4,2.5
		c-2.2,0.9-5.4,1.4-9.6,1.4c-4.3,0-7.3-1.1-9.1-3.4c-1.8-2.3-2.7-6.1-2.7-11.5c0-5.4,0.9-9.2,2.6-11.4c1.7-2.2,4.6-3.3,8.7-3.3
		c3.6,0,6.2,0.7,8,2.2c1.7,1.4,2.6,3.6,2.6,6.6C365.4,198.6,363.5,201.2,359.5,201.2z M346.9,198.3h11.9c2.2,0,3.3-1.6,3.2-4.9
		c0-2-0.6-3.4-1.7-4.3c-1.1-0.9-2.9-1.3-5.3-1.3c-3,0-5,0.8-6.2,2.3C347.5,191.7,346.9,194.4,346.9,198.3z"/>
	<path class="st2" d="M375.8,172.9v11.3c0,2.7-0.1,4.7-0.4,6c3.4-3.7,6.7-5.5,10-5.5c3.2,0,5.6,1.1,7,3.4c1.5,2.3,2.2,6.1,2.2,11.3
		c0,5.1-0.8,8.9-2.4,11.3s-4.4,3.5-8.4,3.5c-3.9,0-7.6-0.6-11.3-1.9v-39.4L375.8,172.9L375.8,172.9z M375.8,192.7v17.2
		c2.6,0.8,5.2,1.2,8,1.1c2.7,0,4.6-0.9,5.8-2.6c1.1-1.7,1.7-4.7,1.7-9c0-4.3-0.5-7.3-1.4-9c-1-1.7-2.7-2.5-5.3-2.5
		c-1.4,0-2.7,0.4-4,1.1C379.3,189.8,377.7,191,375.8,192.7z"/>
	<path class="st2" d="M417.9,200.3h-16v-2.9h16V200.3z"/>
	<path class="st2" d="M438.1,201.6l-7.7-1.6c-2-0.4-3.4-1.2-4.3-2.4c-0.9-1.2-1.3-2.9-1.3-5.3c0-3.2,0.7-5.3,2.2-6.2
		c1.5-1,4-1.5,7.6-1.4c3.8,0.1,7.3,0.4,10.4,0.9l-0.3,2.7c-4.2-0.2-7.4-0.4-9.6-0.4c-2.8,0-4.6,0.2-5.5,0.7
		c-0.9,0.5-1.4,1.8-1.4,3.8c0,1.6,0.3,2.7,0.9,3.3c0.6,0.6,1.6,1.1,3,1.4l7.8,1.6c2,0.5,3.5,1.3,4.4,2.4s1.4,2.9,1.4,5.1
		c0,3.3-0.8,5.4-2.4,6.4s-4.3,1.5-8.1,1.5c-3.5,0-6.7-0.3-9.7-0.8l0.3-2.7c2.8,0.3,5.7,0.4,8.8,0.4c3.1,0,5.2-0.4,6.3-1
		c1.1-0.6,1.6-1.9,1.6-3.9c0-1.5-0.3-2.6-1-3.2C440.6,202.4,439.5,201.9,438.1,201.6z"/>
	<path class="st2" d="M465.6,210.6l0.4,2.8c-1.7,0.4-3.5,0.6-5.3,0.6c-4.2,0-6.3-2.3-6.3-7v-18.6h-4.6v-2.6l4.6-0.3v-8.5h3.3v8.5
		h8.6v2.9h-8.6v18.2c0,2.7,1.2,4.1,3.7,4.1L465.6,210.6L465.6,210.6z"/>
	<path class="st2" d="M492.8,185.4v28.1h-2.6l-0.3-4.4c-3.9,3.4-7.6,5.1-11.2,5.1c-4.6,0-6.9-2.6-6.9-7.7v-21.1h3.3v20.1
		c0,1.9,0.4,3.3,1.1,4.2c0.7,0.9,1.9,1.3,3.6,1.3c1.4,0,2.9-0.4,4.3-1.1c1.4-0.7,3.2-1.9,5.4-3.6v-20.9L492.8,185.4L492.8,185.4z"/>
	<path class="st2" d="M520,213.5l-0.4-4.4c-3.5,3.4-6.8,5-10.1,5c-3.2,0-5.5-1.2-6.9-3.5s-2.1-6.1-2.1-11.3c0-5.3,0.8-9.1,2.3-11.4
		c1.5-2.2,3.9-3.4,7.2-3.4c3.2,0,6.4,0.9,9.6,2.7c-0.1-1.3-0.2-3.1-0.2-5.5v-9h3.3v40.6L520,213.5L520,213.5z M519.3,206.5v-16.5
		c-3.6-1.4-6.5-2-8.7-2c-2.5,0-4.2,0.8-5.2,2.5c-1,1.6-1.5,4.6-1.5,9c0,4.4,0.5,7.4,1.5,9.1c1,1.7,2.7,2.5,5.1,2.5
		c1.4,0,2.8-0.3,4-1C515.7,209.3,517.3,208.1,519.3,206.5z"/>
	<path class="st2" d="M532.5,173.6h1.5c0.7,0,1.1,0.4,1.1,1.2v3.4c0,0.8-0.4,1.2-1.1,1.2h-1.5c-0.7,0-1.1-0.4-1.1-1.2v-3.4
		C531.4,174,531.8,173.6,532.5,173.6z M534.9,213.5h-3.3v-28.1h3.3V213.5z"/>
	<path class="st2" d="M545.2,188c1.8-2.2,4.8-3.3,9-3.3s7.3,1.1,9,3.3s2.6,6,2.6,11.5c0,5.4-0.9,9.2-2.6,11.4
		c-1.7,2.2-4.7,3.3-9,3.3s-7.3-1.1-9-3.3s-2.6-6-2.6-11.4C542.6,194,543.5,190.2,545.2,188z M560.6,190.3c-1.2-1.7-3.3-2.5-6.4-2.5
		s-5.2,0.8-6.4,2.5s-1.8,4.7-1.8,9.1s0.6,7.4,1.8,9.1c1.2,1.7,3.3,2.5,6.4,2.5s5.2-0.8,6.4-2.5c1.2-1.7,1.8-4.7,1.8-9.1
		C562.4,195,561.8,192,560.6,190.3z"/>
</g>
</svg>
