<?xml version="1.0" encoding="utf-8"?>
<!-- Generator: Adobe Illustrator 25.0.1, SVG Export Plug-In . SVG Version: 6.00 Build 0)  -->
<svg version="1.1" id="_x31_" xmlns="http://www.w3.org/2000/svg" xmlns:xlink="http://www.w3.org/1999/xlink" x="0px" y="0px"
	 width="212.5px" height="90.7px" viewBox="0 0 212.5 90.7" style="enable-background:new 0 0 212.5 90.7;" xml:space="preserve">
<style type="text/css">
	.st0{fill-rule:evenodd;clip-rule:evenodd;fill:#FFFFFF;}
	.st1{enable-background:new    ;}
	.st2{fill:#FFFFFF;}
</style>
<path class="st0" d="M21.2,78.4L2.6,66.5v23.8L21.2,78.4L21.2,78.4z M45.7,35.6v23.6L38,64.1V30.2L45.7,35.6L45.7,35.6z M33,17.3
	v49.9l-7.7,4.9V12L33,17.3L33,17.3z M20.4,0v72.4l-7.7-4.9V5.3L20.4,0L20.4,0z M7.7,22.7v41.6L0,59.4V28L7.7,22.7L7.7,22.7z
	 M24.5,78.4l18.6,11.9V66.5L24.5,78.4z"/>
<g class="st1">
	<path class="st2" d="M58.7,59.3V33.4h5.1l10.6,17.3V33.4h4.8v25.9H74L63.5,42.4v16.9L58.7,59.3L58.7,59.3z"/>
	<path class="st2" d="M95.5,53.3l4.9,0.8c-0.6,1.8-1.6,3.2-3,4.1s-3.1,1.4-5.1,1.4c-3.3,0-5.7-1.1-7.2-3.2c-1.2-1.7-1.8-3.9-1.8-6.5
		c0-3.1,0.8-5.5,2.4-7.3s3.7-2.6,6.2-2.6c2.8,0,5,0.9,6.6,2.8s2.4,4.7,2.3,8.5H88.3c0,1.5,0.4,2.6,1.2,3.4c0.8,0.8,1.7,1.2,2.9,1.2
		c0.8,0,1.4-0.2,2-0.6C94.8,54.9,95.2,54.3,95.5,53.3z M95.8,48.3c0-1.4-0.4-2.5-1.1-3.3s-1.6-1.1-2.6-1.1c-1.1,0-2,0.4-2.7,1.2
		s-1.1,1.9-1,3.2C88.4,48.3,95.8,48.3,95.8,48.3z"/>
	<path class="st2" d="M108.3,59.3l-5.9-18.7h4.8l3.5,12.3l3.2-12.3h4.8l3.1,12.3l3.6-12.3h4.9l-6,18.7h-4.8l-3.2-12l-3.2,12H108.3z"
		/>
	<path class="st2" d="M138.7,59.3V37.8H131v-4.4h20.6v4.4H144v21.5H138.7L138.7,59.3z"/>
	<path class="st2" d="M154.3,38v-4.6h5V38H154.3z M154.3,59.3V40.5h5v18.7L154.3,59.3L154.3,59.3z"/>
	<path class="st2" d="M163.9,40.5h4.6v2.6c1.6-2,3.6-3,5.8-3c1.2,0,2.2,0.3,3.1,0.7s1.6,1.2,2.2,2.2c0.8-1,1.7-1.8,2.7-2.2
		s2-0.7,3.1-0.7c1.4,0,2.5,0.3,3.5,0.8c0.9,0.6,1.7,1.4,2.1,2.5c0.3,0.8,0.5,2.1,0.5,3.9v12h-5V48.6c0-1.9-0.2-3.1-0.5-3.6
		c-0.5-0.7-1.2-1.1-2.1-1.1c-0.7,0-1.4,0.2-2,0.6s-1.1,1-1.3,1.9s-0.4,2.1-0.4,3.9v9h-5V49c0-1.8-0.1-3-0.3-3.5s-0.4-0.9-0.8-1.2
		c-0.4-0.3-0.9-0.4-1.5-0.4c-0.8,0-1.4,0.2-2.1,0.6s-1.1,1-1.3,1.8s-0.4,2.1-0.4,3.9v9.1h-5L163.9,40.5L163.9,40.5z"/>
	<path class="st2" d="M207.3,53.3l4.9,0.8c-0.6,1.8-1.6,3.2-3,4.1s-3.1,1.4-5.1,1.4c-3.3,0-5.7-1.1-7.2-3.2
		c-1.2-1.7-1.9-3.9-1.9-6.5c0-3.1,0.8-5.5,2.4-7.3c1.6-1.8,3.7-2.6,6.2-2.6c2.8,0,5,0.9,6.6,2.8s2.4,4.7,2.3,8.5h-12.4
		c0,1.5,0.4,2.6,1.2,3.4c0.8,0.8,1.7,1.2,2.9,1.2c0.8,0,1.4-0.2,2-0.6C206.6,54.9,207,54.3,207.3,53.3z M207.6,48.3
		c0-1.4-0.4-2.5-1.1-3.3c-0.7-0.8-1.6-1.1-2.6-1.1c-1.1,0-2,0.4-2.7,1.2s-1.1,1.9-1,3.2C200.2,48.3,207.6,48.3,207.6,48.3z"/>
</g>
<g class="st1">
	<path class="st2" d="M58.7,90.3V68.2h2.9v22.2C61.7,90.3,58.7,90.3,58.7,90.3z"/>
	<path class="st2" d="M66.5,90.3v-16h2.4v2.3c1.2-1.8,2.9-2.7,5.1-2.7c1,0,1.9,0.2,2.7,0.5s1.4,0.8,1.8,1.4s0.7,1.2,0.8,2
		c0.1,0.5,0.2,1.4,0.2,2.7v9.9h-2.7v-9.8c0-1.1-0.1-1.9-0.3-2.5c-0.2-0.6-0.6-1-1.1-1.3s-1.2-0.5-1.9-0.5c-1.2,0-2.2,0.4-3,1.1
		s-1.3,2.1-1.3,4.2v8.8L66.5,90.3L66.5,90.3z"/>
	<path class="st2" d="M88.2,90.3l-6.1-16.1H85l3.4,9.6c0.4,1,0.7,2.1,1,3.2c0.2-0.8,0.6-1.9,1-3.1l3.6-9.8h2.8l-6.1,16.1
		C90.8,90.3,88.2,90.3,88.2,90.3z"/>
	<path class="st2" d="M110.3,85.2l2.8,0.3c-0.4,1.6-1.3,2.9-2.5,3.8s-2.7,1.4-4.6,1.4c-2.3,0-4.2-0.7-5.6-2.2
		c-1.4-1.4-2.1-3.5-2.1-6.1c0-2.7,0.7-4.8,2.1-6.3s3.2-2.2,5.4-2.2c2.2,0,3.9,0.7,5.3,2.2s2,3.5,2,6.2c0,0.2,0,0.4,0,0.7h-12
		c0.1,1.8,0.6,3.1,1.5,4.1c0.9,0.9,2,1.4,3.4,1.4c1,0,1.8-0.3,2.6-0.8C109.3,87.2,109.8,86.3,110.3,85.2z M101.3,80.8h9
		c-0.1-1.3-0.5-2.4-1-3c-0.9-1.1-2-1.6-3.4-1.6c-1.3,0-2.3,0.4-3.2,1.3C101.9,78.2,101.4,79.3,101.3,80.8z"/>
	<path class="st2" d="M115.4,85.5l2.7-0.4c0.2,1.1,0.6,1.9,1.3,2.5c0.7,0.6,1.7,0.9,2.9,0.9c1.3,0,2.2-0.3,2.8-0.8s0.9-1.1,0.9-1.8
		c0-0.6-0.3-1.1-0.8-1.4c-0.4-0.2-1.3-0.6-2.8-0.9c-2-0.5-3.4-0.9-4.2-1.3c-0.8-0.4-1.4-0.9-1.8-1.5s-0.6-1.4-0.6-2.2
		c0-0.7,0.2-1.4,0.5-2s0.8-1.1,1.3-1.5c0.4-0.3,1-0.6,1.7-0.8c0.7-0.2,1.5-0.3,2.3-0.3c1.3,0,2.4,0.2,3.3,0.5s1.7,0.9,2.1,1.5
		s0.8,1.4,0.9,2.5l-2.7,0.4c-0.1-0.8-0.5-1.5-1.1-1.9c-0.6-0.5-1.4-0.7-2.5-0.7c-1.3,0-2.1,0.2-2.7,0.6s-0.8,0.9-0.8,1.4
		c0,0.3,0.1,0.7,0.3,0.9c0.2,0.3,0.6,0.5,1,0.7c0.3,0.1,1.1,0.3,2.4,0.7c1.9,0.5,3.3,0.9,4,1.3c0.8,0.3,1.4,0.8,1.8,1.4
		c0.4,0.6,0.6,1.4,0.6,2.3s-0.3,1.8-0.8,2.6c-0.5,0.8-1.3,1.4-2.3,1.9s-2.1,0.7-3.4,0.7c-2.1,0-3.7-0.4-4.8-1.3
		C116.4,88.5,115.7,87.3,115.4,85.5z"/>
	<path class="st2" d="M137.9,87.9l0.4,2.4c-0.8,0.2-1.4,0.2-2.1,0.2c-1,0-1.8-0.2-2.3-0.5s-0.9-0.7-1.1-1.2s-0.3-1.6-0.3-3.2v-9.3
		h-2v-2.1h2v-4l2.7-1.6v5.6h2.7v2.1h-2.7v9.4c0,0.8,0.1,1.3,0.1,1.5c0.1,0.2,0.3,0.4,0.5,0.5s0.5,0.2,0.9,0.2
		C137,88,137.4,88,137.9,87.9z"/>
	<path class="st2" d="M140.6,90.3v-16h2.4v2.3c0.5-0.8,1.2-1.4,2-1.9s1.8-0.7,2.9-0.7c1.2,0,2.2,0.3,2.9,0.7
		c0.8,0.5,1.3,1.2,1.6,2.1c1.3-1.9,2.9-2.8,5-2.8c1.6,0,2.8,0.4,3.7,1.3s1.3,2.2,1.3,4.1v11h-2.7V80.2c0-1.1-0.1-1.9-0.3-2.3
		c-0.2-0.5-0.5-0.9-1-1.2s-1-0.4-1.6-0.4c-1.1,0-2.1,0.4-2.8,1.1s-1.1,2-1.1,3.6v9.3h-2.7V79.9c0-1.2-0.2-2.1-0.7-2.7
		s-1.2-0.9-2.2-0.9c-0.8,0-1.5,0.2-2.1,0.6s-1.1,1-1.4,1.8c-0.3,0.8-0.4,1.9-0.4,3.4v8.3h-2.8V90.3z"/>
	<path class="st2" d="M177.4,85.2l2.8,0.3c-0.4,1.6-1.3,2.9-2.5,3.8s-2.7,1.4-4.6,1.4c-2.4,0-4.2-0.7-5.6-2.2
		c-1.4-1.4-2.1-3.5-2.1-6.1c0-2.7,0.7-4.8,2.1-6.3s3.2-2.2,5.4-2.2c2.1,0,3.9,0.7,5.3,2.2s2,3.5,2,6.2c0,0.2,0,0.4,0,0.7h-12
		c0.1,1.8,0.6,3.1,1.5,4.1c0.9,0.9,2,1.4,3.4,1.4c1,0,1.9-0.3,2.6-0.8S177,86.3,177.4,85.2z M168.5,80.8h9c-0.1-1.3-0.5-2.4-1-3
		c-0.9-1.1-2-1.6-3.4-1.6c-1.3,0-2.3,0.4-3.2,1.3C169,78.2,168.6,79.3,168.5,80.8z"/>
	<path class="st2" d="M183.7,90.3v-16h2.4v2.3c1.2-1.8,2.9-2.7,5.1-2.7c1,0,1.9,0.2,2.7,0.5s1.4,0.8,1.8,1.4c0.4,0.6,0.7,1.2,0.9,2
		c0.1,0.5,0.1,1.4,0.1,2.7v9.9H194v-9.8c0-1.1-0.1-1.9-0.3-2.5s-0.6-1-1.1-1.3s-1.2-0.5-1.9-0.5c-1.2,0-2.2,0.4-3,1.1
		s-1.3,2.1-1.3,4.2v8.8L183.7,90.3L183.7,90.3z"/>
	<path class="st2" d="M206.9,87.9l0.4,2.4c-0.8,0.2-1.4,0.2-2.1,0.2c-1,0-1.8-0.2-2.3-0.5s-0.9-0.7-1.1-1.2s-0.3-1.6-0.3-3.2v-9.3
		h-2v-2.1h2v-4l2.7-1.6v5.6h2.7v2.1h-2.7v9.4c0,0.8,0.1,1.3,0.1,1.5s0.3,0.4,0.5,0.5s0.5,0.2,0.9,0.2C206,88,206.4,88,206.9,87.9z"
		/>
</g>
</svg>
